<svg xmlns="http://www.w3.org/2000/svg" xmlns:xlink="http://www.w3.org/1999/xlink" viewBox="0 0 385.7 273.6"><defs><linearGradient id="e97db4c3-1851-419a-8e33-3baf243ecf07" x1="4328.87" y1="64.11" x2="4367.22" y2="129.88" gradientTransform="matrix(1, 0, 0, -1, -4051.29, 185.47)" gradientUnits="userSpaceOnUse"><stop offset="0.56" stop-color="#fff"/><stop offset="0.61" stop-color="#f5f4f5"/><stop offset="0.69" stop-color="#d8d8d9"/><stop offset="0.8" stop-color="#abaaab"/><stop offset="0.92" stop-color="#6c6c6d"/><stop offset="1" stop-color="#414042"/></linearGradient><mask id="a72a833b-6ed2-411e-b10e-b398b068b2fd" x="216.64" y="13.61" width="155.25" height="158.25" maskUnits="userSpaceOnUse"><rect x="216.64" y="13.61" width="155.25" height="158.25" transform="translate(588.54 185.47) rotate(180)" fill="url(#e97db4c3-1851-419a-8e33-3baf243ecf07)"/></mask></defs><g style="isolation:isolate"><g id="b9598207-794f-45e6-ba04-8ed1055c056b" data-name="Layer 1"><path d="M295.35,255.84a14.13,14.13,0,0,1-7-1.62l-100.6-58.08a5.1,5.1,0,0,1-2.93-4.32c0-2,1.47-4,4-5.49l57.09-33a18.64,18.64,0,0,1,9-2.25,14.24,14.24,0,0,1,7,1.61L362.58,210.8c1.89,1.1,2.93,2.63,2.93,4.32,0,2-1.48,4-4.05,5.5l-57.09,33A18.5,18.5,0,0,1,295.35,255.84ZM255,152.11a17.55,17.55,0,0,0-8.52,2.12l-57.09,33c-2.25,1.3-3.54,3-3.54,4.63a4.17,4.17,0,0,0,2.43,3.46l100.6,58.08a13.29,13.29,0,0,0,6.48,1.48,17.52,17.52,0,0,0,8.52-2.12l57.09-33c2.26-1.3,3.55-3,3.55-4.63a4.18,4.18,0,0,0-2.43-3.45L261.47,153.59A13.16,13.16,0,0,0,255,152.11Z" fill="#92b4d1"/><path d="M288.75,247.83l-93.12-53.76a4.3,4.3,0,0,1-2.48-3.53v-4.62c0-1.61,1.22,1.19,3.51-.13l52.85-30.52c4.24-2.45,10.67-2.71,14.34-.59L357,208.44c1.23.71,2.12-2.3,2.44-1.34.1.32,0,4.54,0,4.87,0,1.65-1.15,3.39-3.51,4.75L303.1,247.24C298.85,249.69,292.43,250,288.75,247.83Z" fill="#2672ab"/><path d="M288.75,243.3l-93.12-53.76c-3.68-2.12-3.21-5.83,1-8.28l52.85-30.51c4.24-2.45,10.67-2.72,14.34-.6L357,203.91c3.68,2.13,3.22,5.84-1,8.29L303.1,242.71C298.85,245.16,292.43,245.43,288.75,243.3Z" fill="#d1ebff"/><path d="M288.75,247.83c3.68,2.12,10.1,1.86,14.35-.59v-4.53c-4.25,2.45-10.67,2.72-14.35.59Z" fill="#3f92d1" opacity="0.5"/><path d="M288.75,243.3l-93.12-53.76c-1.78-1-2.58-2.42-2.46-3.87a1.69,1.69,0,0,0,0,.25v4.62a4.3,4.3,0,0,0,2.48,3.53l93.12,53.76Z" fill="#3f92d1"/><path d="M355.94,211.43,303.1,241.94c-4.25,2.45-10.67,2.72-14.35.59l-93.12-53.76a4.38,4.38,0,0,1-2.45-3.26c-.19,1.51.61,3,2.45,4l93.12,53.76c3.68,2.13,10.1,1.86,14.35-.59l52.84-30.51c2.49-1.44,3.66-3.3,3.49-5C359.24,208.67,358.06,210.2,355.94,211.43Z" fill="#fff"/><path d="M267.55,224.52l-33.14-19.13c-.66-.39-.58-1,.19-1.5L247,196.71a2.9,2.9,0,0,1,2.59-.11l33.14,19.14c.66.38.58,1-.19,1.49l-12.44,7.18A2.87,2.87,0,0,1,267.55,224.52Z" fill="#fff" opacity="0.3"/><path d="M234.6,204.68,247,197.5a2.87,2.87,0,0,1,2.59-.11l33.14,19.13a1,1,0,0,1,.31.27.69.69,0,0,0-.31-1L249.63,196.6a2.9,2.9,0,0,0-2.59.11l-12.44,7.18c-.61.36-.78.85-.49,1.23A1.33,1.33,0,0,1,234.6,204.68Z" fill="#a8cff0"/><path d="M257.79,157.06l5.71,3.3a2.9,2.9,0,0,0,2.63,0c.72-.41.71-1.09,0-1.51l-5.71-3.3a2.9,2.9,0,0,0-2.63,0C257.06,156,257.07,156.64,257.79,157.06Zm9.78,5.65,2.71,1.56a2.88,2.88,0,0,0,2.62,0c.72-.41.72-1.09,0-1.51l-2.71-1.56a2.91,2.91,0,0,0-2.62,0A.8.8,0,0,0,267.57,162.71Zm6.77,3.91,2.71,1.56a2.88,2.88,0,0,0,2.62,0c.72-.41.72-1.09,0-1.51l-2.7-1.56a2.91,2.91,0,0,0-2.62,0A.8.8,0,0,0,274.34,166.62Zm6.78,3.91,2.7,1.56a2.88,2.88,0,0,0,2.62,0c.73-.41.72-1.09,0-1.51L283.73,169a2.91,2.91,0,0,0-2.62,0A.8.8,0,0,0,281.12,170.53Zm6.77,3.91,2.7,1.56a2.9,2.9,0,0,0,2.63,0c.72-.41.71-1.09,0-1.51l-2.71-1.56a2.91,2.91,0,0,0-2.62,0A.8.8,0,0,0,287.89,174.44Zm6.77,3.91,2.71,1.56a2.91,2.91,0,0,0,2.62,0,.8.8,0,0,0,0-1.52l-2.7-1.56a2.93,2.93,0,0,0-2.63,0A.8.8,0,0,0,294.66,178.35Zm6.77,3.91,2.71,1.56a2.91,2.91,0,0,0,2.62,0,.8.8,0,0,0,0-1.52l-2.7-1.56a2.91,2.91,0,0,0-2.62,0A.8.8,0,0,0,301.43,182.26Zm6.78,3.91,2.7,1.56a2.91,2.91,0,0,0,2.62,0,.8.8,0,0,0,0-1.52l-2.71-1.56a2.88,2.88,0,0,0-2.62,0C307.48,185.07,307.48,185.75,308.21,186.17Zm6.77,3.91,2.71,1.56a2.91,2.91,0,0,0,2.62,0,.8.8,0,0,0,0-1.52l-2.71-1.56a2.88,2.88,0,0,0-2.62,0C314.25,189,314.25,189.66,315,190.08Zm6.77,3.91,2.71,1.56a2.91,2.91,0,0,0,2.62,0,.8.8,0,0,0,0-1.52l-2.7-1.56a2.9,2.9,0,0,0-2.63,0C321,192.89,321,193.57,321.75,194Zm6.78,3.91,2.7,1.56a2.91,2.91,0,0,0,2.62,0,.8.8,0,0,0,0-1.52l-2.7-1.56a2.88,2.88,0,0,0-2.62,0C327.8,196.8,327.8,197.48,328.53,197.9Zm6.77,3.91,2.7,1.56a2.93,2.93,0,0,0,2.63,0,.8.8,0,0,0,0-1.52l-2.71-1.56a2.88,2.88,0,0,0-2.62,0C334.57,200.71,334.57,201.39,335.3,201.81Zm6.91,4,2.71,1.56a2.91,2.91,0,0,0,2.62,0,.8.8,0,0,0,0-1.52l-2.7-1.56a2.9,2.9,0,0,0-2.63,0C341.48,204.7,341.49,205.38,342.21,205.8Zm-90.51-45,2.34,1.35a3.32,3.32,0,0,0,3,0l2.32-1.35c.83-.47.82-1.24,0-1.72L257,157.73a3.29,3.29,0,0,0-3,0l-2.33,1.35C250.87,159.54,250.87,160.31,251.7,160.79Zm12.1,5.27,2.33-1.35c.82-.47.81-1.24,0-1.72l-2.34-1.35a3.32,3.32,0,0,0-3,0L258.46,163c-.82.47-.81,1.24,0,1.72l2.35,1.35A3.29,3.29,0,0,0,263.8,166.06Zm1.45,2.55,2.34,1.35a3.29,3.29,0,0,0,3,0l2.33-1.35c.82-.47.82-1.24,0-1.72l-2.34-1.35a3.32,3.32,0,0,0-3,0l-2.32,1.35C264.42,167.36,264.42,168.13,265.25,168.61Zm6.77,3.91,2.34,1.35a3.29,3.29,0,0,0,3,0l2.33-1.35c.82-.47.82-1.24,0-1.72l-2.34-1.35a3.29,3.29,0,0,0-3,0L272,170.8C271.19,171.27,271.19,172,272,172.52Zm14.42,2.2-2.35-1.35a3.29,3.29,0,0,0-3,0l-2.33,1.35c-.82.47-.82,1.24,0,1.72l2.34,1.35a3.32,3.32,0,0,0,3,0l2.33-1.35C287.27,176,287.26,175.2,286.44,174.72Zm6.77,3.91-2.34-1.35a3.32,3.32,0,0,0-3,0l-2.33,1.35c-.82.47-.81,1.24,0,1.72l2.35,1.35a3.29,3.29,0,0,0,3,0l2.33-1.35C294,179.88,294,179.11,293.21,178.63Zm6.77,3.91-2.34-1.35a3.29,3.29,0,0,0-3,0l-2.33,1.35c-.82.47-.82,1.24,0,1.72l2.34,1.35a3.29,3.29,0,0,0,3,0l2.33-1.35C300.81,183.79,300.81,183,300,182.54Zm6.77,3.91-2.34-1.35a3.29,3.29,0,0,0-3,0l-2.33,1.35c-.82.47-.82,1.24,0,1.72l2.34,1.35a3.32,3.32,0,0,0,3,0l2.32-1.35C307.58,187.7,307.58,186.93,306.75,186.45Zm6.78,3.91L311.18,189a3.29,3.29,0,0,0-3,0l-2.33,1.35c-.82.47-.81,1.24,0,1.72l2.34,1.35a3.32,3.32,0,0,0,3,0l2.33-1.35C314.36,191.61,314.35,190.84,313.53,190.36Zm6.77,3.91L318,192.92a3.32,3.32,0,0,0-3,0l-2.32,1.35c-.83.47-.82,1.24,0,1.72l2.34,1.35a3.29,3.29,0,0,0,3,0l2.33-1.35C321.13,195.52,321.13,194.75,320.3,194.27Zm-.87,5.62,2.34,1.35a3.29,3.29,0,0,0,3,0l2.33-1.35c.82-.47.82-1.24,0-1.72l-2.34-1.35a3.29,3.29,0,0,0-3,0l-2.33,1.35C318.6,198.64,318.6,199.41,319.43,199.89Zm14.42,2.2-2.35-1.35a3.29,3.29,0,0,0-3,0l-2.33,1.35c-.82.47-.82,1.24,0,1.72l2.34,1.35a3.32,3.32,0,0,0,3,0l2.32-1.35C334.68,203.34,334.67,202.57,333.85,202.09Zm9.91,5.73-5.34-3.09a3.28,3.28,0,0,0-3,0l-2.32,1.34a.91.91,0,0,0,0,1.72l5.35,3.09a3.32,3.32,0,0,0,3,0l2.32-1.35C344.6,209.07,344.59,208.3,343.76,207.82Zm-98.33-43.41,5.35,3.09a3.29,3.29,0,0,0,3,0l2.33-1.34a.91.91,0,0,0,0-1.72l-5.35-3.09a3.29,3.29,0,0,0-3,0l-2.33,1.35C244.6,163.16,244.6,163.93,245.43,164.41Zm9.78,5.65,2.34,1.35a3.26,3.26,0,0,0,3,0l2.33-1.34a.91.91,0,0,0,0-1.72L260.51,167a3.32,3.32,0,0,0-3,0l-2.32,1.34A.91.91,0,0,0,255.21,170.06Zm9.11,5.26a3.26,3.26,0,0,0,3,0l2.33-1.34a.91.91,0,0,0,0-1.72l-2.34-1.36a3.33,3.33,0,0,0-3,0L262,172.24a.91.91,0,0,0,0,1.73Zm6.77,3.91a3.28,3.28,0,0,0,3,0l2.33-1.34a.91.91,0,0,0,0-1.72l-2.35-1.36a3.33,3.33,0,0,0-3,0l-2.33,1.34a.91.91,0,0,0,0,1.73Zm6.75-.51-2.33,1.34a.92.92,0,0,0,0,1.73l2.35,1.35a3.26,3.26,0,0,0,3,0l2.33-1.34a.91.91,0,0,0,0-1.72l-2.34-1.35A3.32,3.32,0,0,0,277.84,178.72Zm6.92,3.83-2.62,1.51c-.74.43-.73,1.12,0,1.55l2.63,1.52a3,3,0,0,0,2.7,0l2.61-1.51a.82.82,0,0,0,0-1.56l-2.63-1.52A3,3,0,0,0,284.76,182.55Zm6.77,3.91L288.92,188a.82.82,0,0,0,0,1.55l2.63,1.52a3,3,0,0,0,2.69,0l2.62-1.51a.82.82,0,0,0,0-1.56l-2.63-1.52A3,3,0,0,0,291.53,186.46Zm6.77,3.91-2.61,1.51a.82.82,0,0,0,0,1.55l2.63,1.52a3,3,0,0,0,2.7,0l2.61-1.51a.82.82,0,0,0,0-1.56L301,190.37A3,3,0,0,0,298.3,190.37Zm6.78,3.91-2.62,1.51a.82.82,0,0,0,0,1.55l2.63,1.52a3,3,0,0,0,2.7,0l2.61-1.51a.82.82,0,0,0,0-1.56l-2.63-1.52A3,3,0,0,0,305.08,194.28Zm6.77,3.91-2.61,1.51c-.75.43-.74,1.12,0,1.55l2.63,1.52a3,3,0,0,0,2.7,0l2.62-1.51a.83.83,0,0,0,0-1.56l-2.63-1.52A3,3,0,0,0,311.85,198.19Zm9.49,8.5,2.62-1.51a.82.82,0,0,0,0-1.56l-2.63-1.52a3,3,0,0,0-2.7,0L316,203.61a.82.82,0,0,0,0,1.55l2.63,1.52A3,3,0,0,0,321.34,206.69Zm6.78,3.91,2.61-1.51a.82.82,0,0,0,0-1.56L328.09,206a3,3,0,0,0-2.69,0l-2.62,1.51c-.74.43-.74,1.12,0,1.56l2.63,1.51A3,3,0,0,0,328.12,210.6Zm9.52.92L335,210a3,3,0,0,0-2.7,0l-2.62,1.51a.83.83,0,0,0,0,1.56l2.63,1.52a3,3,0,0,0,2.7,0l2.61-1.51C338.39,212.65,338.38,212,337.64,211.52ZM239,168l8.49,4.9a3,3,0,0,0,2.7,0l2.61-1.51c.75-.43.74-1.13,0-1.56l-8.49-4.9a3,3,0,0,0-2.69,0L239,166.39A.82.82,0,0,0,239,168Zm12.63,7.29,2.63,1.52a3,3,0,0,0,2.7,0l2.62-1.51a.83.83,0,0,0,0-1.56L257,172.18a3,3,0,0,0-2.7,0l-2.61,1.51C250.89,174.11,250.9,174.81,251.64,175.24Zm6.78,3.91,2.63,1.52a3,3,0,0,0,2.69,0l2.62-1.51a.82.82,0,0,0,0-1.56l-2.63-1.52a3,3,0,0,0-2.7,0l-2.61,1.51C257.67,178,257.67,178.72,258.42,179.15Zm6.77,3.91,2.63,1.52a3,3,0,0,0,2.7,0l2.61-1.51a.82.82,0,0,0,0-1.56L270.49,180a3,3,0,0,0-2.69,0l-2.62,1.51A.82.82,0,0,0,265.19,183.06Zm12.1,5.44L279.9,187a.82.82,0,0,0,0-1.56l-2.63-1.52a3,3,0,0,0-2.7,0L272,185.42c-.74.43-.73,1.12,0,1.55l2.63,1.52A3,3,0,0,0,277.29,188.5Zm6.77,3.91,2.62-1.51a.82.82,0,0,0,0-1.56L284,187.82a3,3,0,0,0-2.7,0l-2.61,1.51c-.75.43-.74,1.12,0,1.55l2.63,1.52A3,3,0,0,0,284.06,192.41Zm6.78,3.91,2.61-1.51a.82.82,0,0,0,0-1.56l-2.63-1.52a3,3,0,0,0-2.7,0l-2.61,1.51a.82.82,0,0,0,0,1.55l2.63,1.52A3,3,0,0,0,290.84,196.32Zm6.77,3.91,2.61-1.51a.82.82,0,0,0,0-1.56l-2.63-1.52a3,3,0,0,0-2.69,0l-2.62,1.51a.82.82,0,0,0,0,1.55l2.63,1.52A3,3,0,0,0,297.61,200.23Zm6.77,3.91,2.61-1.51a.82.82,0,0,0,0-1.56l-2.63-1.52a3,3,0,0,0-2.7,0l-2.61,1.51c-.75.43-.74,1.12,0,1.55l2.63,1.52A3,3,0,0,0,304.38,204.14Zm6.77,3.91,2.62-1.51a.82.82,0,0,0,0-1.56l-2.63-1.52a3,3,0,0,0-2.7,0L305.82,205c-.74.43-.74,1.12,0,1.56l2.63,1.51A3,3,0,0,0,311.15,208.05Zm1.45,2.39,2.63,1.51a3,3,0,0,0,2.7,0l2.61-1.51a.82.82,0,0,0,0-1.56l-2.63-1.52a3,3,0,0,0-2.7,0l-2.61,1.51C311.85,209.31,311.85,210,312.6,210.44Zm18.76,4.71-6.69-3.87a3,3,0,0,0-2.69,0l-2.62,1.51c-.74.43-.73,1.12,0,1.56l6.69,3.86a3,3,0,0,0,2.7,0l2.61-1.51A.82.82,0,0,0,331.36,215.15Zm-98.6-43.39,12.05,7a3.38,3.38,0,0,0,3.05,0l2.26-1.31c.84-.48.84-1.27,0-1.76l-12-7a3.38,3.38,0,0,0-3,0L232.75,170C231.91,170.48,231.92,171.27,232.76,171.76Zm16.55,9.55,2.27,1.31a3.38,3.38,0,0,0,3,0l2.27-1.31c.84-.48.83-1.27,0-1.76l-2.28-1.31a3.38,3.38,0,0,0-3.05,0l-2.26,1.31C248.46,180,248.46,180.82,249.31,181.31Zm6.77,3.91,2.28,1.31a3.36,3.36,0,0,0,3,0l2.27-1.31c.84-.48.83-1.27,0-1.76l-2.28-1.31a3.38,3.38,0,0,0-3.05,0l-2.26,1.31C255.23,183.94,255.23,184.73,256.08,185.22Zm6.77,3.91,2.28,1.31a3.38,3.38,0,0,0,3.05,0l2.26-1.31c.84-.48.84-1.27,0-1.76l-2.28-1.31a3.36,3.36,0,0,0-3,0l-2.27,1.31C262,187.85,262,188.64,262.85,189.13Zm6.77,3.91,2.28,1.32a3.41,3.41,0,0,0,3.05,0l2.26-1.31a.93.93,0,0,0,0-1.76L274.93,190a3.38,3.38,0,0,0-3.05,0l-2.27,1.31A.93.93,0,0,0,269.62,193ZM276.4,197l2.28,1.32a3.36,3.36,0,0,0,3,0L284,197c.84-.48.83-1.27,0-1.76l-2.28-1.31a3.38,3.38,0,0,0-3.05,0l-2.26,1.31C275.55,195.67,275.55,196.46,276.4,197Zm6.77,3.91,2.28,1.32a3.38,3.38,0,0,0,3.05,0l2.26-1.31c.84-.48.83-1.27,0-1.76l-2.28-1.31a3.38,3.38,0,0,0-3.05,0l-2.26,1.31C282.32,199.58,282.33,200.37,283.17,200.86Zm6.77,3.91,2.28,1.32a3.38,3.38,0,0,0,3,0l2.26-1.31c.84-.48.84-1.27,0-1.76l-2.28-1.31a3.36,3.36,0,0,0-3,0L289.93,203C289.09,203.5,289.1,204.28,289.94,204.77Zm6.77,3.91L299,210a3.38,3.38,0,0,0,3.05,0l2.27-1.31a.92.92,0,0,0,0-1.75L302,205.62a3.38,3.38,0,0,0-3,0l-2.26,1.31A.93.93,0,0,0,296.71,208.68Zm6.78,3.91,2.28,1.32a3.36,3.36,0,0,0,3,0l2.27-1.31a.92.92,0,0,0,0-1.75l-2.28-1.32a3.38,3.38,0,0,0-3.05,0l-2.26,1.31C302.64,211.32,302.64,212.1,303.49,212.59Zm6.77,3.91,2.28,1.32a3.38,3.38,0,0,0,3,0l2.26-1.31a.92.92,0,0,0,0-1.75l-2.28-1.32a3.36,3.36,0,0,0-3,0l-2.27,1.31C309.41,215.23,309.42,216,310.26,216.5Zm14.51,2.25-2.28-1.31a3.38,3.38,0,0,0-3.05,0l-2.27,1.31a.93.93,0,0,0,0,1.76l2.28,1.31a3.38,3.38,0,0,0,3.05,0l2.26-1.31A.93.93,0,0,0,324.77,218.75Zm-87.69-43.38-5.29-3.05a3.36,3.36,0,0,0-3,0l-2.27,1.31c-.84.48-.83,1.27,0,1.76l5.29,3.05a3.36,3.36,0,0,0,3,0l2.27-1.31C237.93,176.64,237.92,175.86,237.08,175.37Zm6.77,3.91L241.57,178a3.38,3.38,0,0,0-3,0l-2.26,1.31c-.84.48-.84,1.27,0,1.76l2.28,1.31a3.36,3.36,0,0,0,3,0l2.27-1.31C244.7,180.55,244.69,179.77,243.85,179.28Zm6.77,3.91-2.28-1.32a3.36,3.36,0,0,0-3,0L243,183.18c-.84.48-.83,1.27,0,1.76l2.28,1.31a3.38,3.38,0,0,0,3.05,0l2.26-1.31C251.47,184.47,251.47,183.68,250.62,183.19ZM298,210.56l-42.91-24.78a3.38,3.38,0,0,0-3.05,0l-2.27,1.31a.93.93,0,0,0,0,1.76l42.92,24.77a3.38,3.38,0,0,0,3,0l2.26-1.31C298.88,211.84,298.88,211.05,298,210.56Zm6.78,3.91-2.28-1.31a3.38,3.38,0,0,0-3,0l-2.27,1.31a.93.93,0,0,0,0,1.76l2.28,1.31a3.38,3.38,0,0,0,3.05,0l2.26-1.31A.93.93,0,0,0,304.81,214.47Zm6.77,3.91-2.28-1.31a3.38,3.38,0,0,0-3.05,0L304,218.37c-.84.48-.84,1.27,0,1.76l2.28,1.31a3.36,3.36,0,0,0,3,0l2.27-1.31C312.43,219.66,312.42,218.87,311.58,218.38Zm6.91,4-2.28-1.31a3.36,3.36,0,0,0-3,0l-2.27,1.31c-.84.48-.83,1.27,0,1.76l2.28,1.32a3.38,3.38,0,0,0,3.05,0l2.26-1.31C319.34,223.65,319.34,222.86,318.49,222.37Z" fill="#72b5e8"/><path d="M257.79,156.43l5.71,3.3a2.9,2.9,0,0,0,2.63,0c.72-.41.71-1.09,0-1.51l-5.71-3.3a2.9,2.9,0,0,0-2.63,0C257.06,155.33,257.07,156,257.79,156.43Zm9.78,5.65,2.71,1.56a2.88,2.88,0,0,0,2.62,0c.72-.41.72-1.09,0-1.51l-2.71-1.56a2.91,2.91,0,0,0-2.62,0A.8.8,0,0,0,267.57,162.08Zm6.77,3.91,2.71,1.56a2.88,2.88,0,0,0,2.62,0c.72-.41.72-1.09,0-1.51l-2.7-1.56a2.91,2.91,0,0,0-2.62,0A.8.8,0,0,0,274.34,166Zm6.78,3.91,2.7,1.56a2.88,2.88,0,0,0,2.62,0c.73-.41.72-1.09,0-1.51l-2.71-1.56a2.91,2.91,0,0,0-2.62,0A.8.8,0,0,0,281.12,169.9Zm6.77,3.91,2.7,1.56a2.9,2.9,0,0,0,2.63,0c.72-.41.71-1.09,0-1.51l-2.71-1.56a2.91,2.91,0,0,0-2.62,0A.8.8,0,0,0,287.89,173.81Zm6.77,3.91,2.71,1.56a2.88,2.88,0,0,0,2.62,0c.72-.41.72-1.09,0-1.51l-2.7-1.56a2.93,2.93,0,0,0-2.63,0A.8.8,0,0,0,294.66,177.72Zm6.77,3.91,2.71,1.56a2.88,2.88,0,0,0,2.62,0c.72-.41.72-1.09,0-1.51l-2.7-1.56a2.91,2.91,0,0,0-2.62,0A.8.8,0,0,0,301.43,181.63Zm6.78,3.91,2.7,1.56a2.88,2.88,0,0,0,2.62,0c.73-.41.72-1.09,0-1.51L310.82,184a2.91,2.91,0,0,0-2.62,0A.8.8,0,0,0,308.21,185.54Zm6.77,3.91,2.71,1.56a2.88,2.88,0,0,0,2.62,0c.72-.41.72-1.09,0-1.51l-2.71-1.56a2.91,2.91,0,0,0-2.62,0A.8.8,0,0,0,315,189.45Zm6.77,3.91,2.71,1.56a2.91,2.91,0,0,0,2.62,0,.8.8,0,0,0,0-1.52l-2.7-1.56a2.93,2.93,0,0,0-2.63,0A.8.8,0,0,0,321.75,193.36Zm6.78,3.91,2.7,1.56a2.91,2.91,0,0,0,2.62,0,.8.8,0,0,0,0-1.52l-2.7-1.56a2.88,2.88,0,0,0-2.62,0C327.8,196.17,327.8,196.85,328.53,197.27Zm6.77,3.91,2.7,1.56a2.93,2.93,0,0,0,2.63,0,.8.8,0,0,0,0-1.52l-2.71-1.56a2.88,2.88,0,0,0-2.62,0C334.57,200.08,334.57,200.76,335.3,201.18Zm6.91,4,2.71,1.56a2.91,2.91,0,0,0,2.62,0,.8.8,0,0,0,0-1.52l-2.7-1.56a2.9,2.9,0,0,0-2.63,0C341.48,204.07,341.49,204.75,342.21,205.17Zm-90.51-45,2.34,1.35a3.28,3.28,0,0,0,3,0l2.32-1.34c.83-.47.82-1.24,0-1.72L257,157.1a3.29,3.29,0,0,0-3,0l-2.33,1.34A.91.91,0,0,0,251.7,160.16Zm12.1,5.27,2.33-1.35c.82-.47.81-1.24,0-1.72L263.78,161a3.32,3.32,0,0,0-3,0l-2.33,1.34a.92.92,0,0,0,0,1.73l2.35,1.35A3.29,3.29,0,0,0,263.8,165.43Zm1.45,2.55,2.34,1.35a3.29,3.29,0,0,0,3,0L272.9,168c.82-.47.82-1.24,0-1.72l-2.34-1.35a3.32,3.32,0,0,0-3,0l-2.32,1.34A.91.91,0,0,0,265.25,168Zm6.77,3.91,2.34,1.35a3.29,3.29,0,0,0,3,0l2.33-1.35c.82-.47.82-1.24,0-1.72l-2.34-1.35a3.29,3.29,0,0,0-3,0L272,170.17C271.19,170.64,271.19,171.41,272,171.89Zm14.42,2.2-2.35-1.35a3.29,3.29,0,0,0-3,0l-2.33,1.35c-.82.47-.82,1.24,0,1.72l2.34,1.35a3.32,3.32,0,0,0,3,0l2.33-1.35C287.27,175.34,287.26,174.57,286.44,174.09Zm6.77,3.91-2.34-1.35a3.32,3.32,0,0,0-3,0L285.55,178c-.82.47-.81,1.24,0,1.72l2.35,1.35a3.29,3.29,0,0,0,3,0l2.33-1.35C294,179.25,294,178.48,293.21,178Zm6.77,3.91-2.34-1.35a3.29,3.29,0,0,0-3,0l-2.33,1.35c-.82.47-.82,1.24,0,1.72l2.34,1.35a3.29,3.29,0,0,0,3,0l2.33-1.35C300.81,183.16,300.81,182.39,300,181.91Zm6.77,3.91-2.34-1.35a3.29,3.29,0,0,0-3,0l-2.33,1.35c-.82.47-.82,1.24,0,1.72l2.34,1.35a3.32,3.32,0,0,0,3,0l2.32-1.35C307.58,187.07,307.58,186.3,306.75,185.82Zm6.78,3.91-2.35-1.35a3.29,3.29,0,0,0-3,0l-2.33,1.35c-.82.47-.81,1.24,0,1.72l2.34,1.35a3.32,3.32,0,0,0,3,0l2.33-1.35C314.36,191,314.35,190.21,313.53,189.73Zm6.77,3.91L318,192.29a3.32,3.32,0,0,0-3,0l-2.32,1.35c-.83.47-.82,1.24,0,1.72L315,196.7a3.29,3.29,0,0,0,3,0l2.33-1.35C321.13,194.89,321.13,194.12,320.3,193.64Zm-.87,5.62,2.34,1.35a3.29,3.29,0,0,0,3,0l2.33-1.35c.82-.47.82-1.24,0-1.72l-2.34-1.35a3.29,3.29,0,0,0-3,0l-2.33,1.35C318.6,198,318.6,198.78,319.43,199.26Zm14.42,2.2-2.35-1.35a3.29,3.29,0,0,0-3,0l-2.33,1.35c-.82.47-.82,1.24,0,1.72l2.34,1.35a3.32,3.32,0,0,0,3,0l2.32-1.35C334.68,202.71,334.67,201.94,333.85,201.46Zm9.91,5.73-5.34-3.09a3.28,3.28,0,0,0-3,0l-2.32,1.34c-.83.47-.82,1.24,0,1.72l5.35,3.09a3.28,3.28,0,0,0,3,0l2.32-1.34C344.6,208.44,344.59,207.67,343.76,207.19Zm-98.33-43.41,5.35,3.09a3.29,3.29,0,0,0,3,0l2.33-1.34a.91.91,0,0,0,0-1.72l-5.35-3.09a3.29,3.29,0,0,0-3,0l-2.33,1.35C244.6,162.53,244.6,163.3,245.43,163.78Zm9.78,5.64,2.34,1.36a3.29,3.29,0,0,0,3,0l2.33-1.34a.91.91,0,0,0,0-1.72l-2.34-1.36a3.32,3.32,0,0,0-3,0l-2.32,1.34A.91.91,0,0,0,255.21,169.42Zm9.11,5.27a3.29,3.29,0,0,0,3,0l2.33-1.34a.91.91,0,0,0,0-1.72l-2.34-1.36a3.29,3.29,0,0,0-3,0L262,171.61a.91.91,0,0,0,0,1.73Zm6.77,3.91a3.31,3.31,0,0,0,3,0l2.33-1.34a.91.91,0,0,0,0-1.72l-2.35-1.36a3.29,3.29,0,0,0-3,0l-2.33,1.34a.91.91,0,0,0,0,1.73Zm6.75-.51-2.33,1.34a.92.92,0,0,0,0,1.73l2.35,1.35a3.26,3.26,0,0,0,3,0l2.33-1.34a.91.91,0,0,0,0-1.72l-2.34-1.36A3.31,3.31,0,0,0,277.84,178.09Zm6.92,3.83-2.62,1.51c-.74.42-.73,1.12,0,1.55l2.63,1.52a3,3,0,0,0,2.7,0l2.61-1.51a.82.82,0,0,0,0-1.56l-2.63-1.52A3,3,0,0,0,284.76,181.92Zm6.77,3.91-2.61,1.51c-.74.42-.74,1.12,0,1.55l2.63,1.52a3,3,0,0,0,2.69,0l2.62-1.51a.82.82,0,0,0,0-1.56l-2.63-1.52A3,3,0,0,0,291.53,185.83Zm6.77,3.91-2.61,1.51c-.74.42-.74,1.12,0,1.55l2.63,1.52a3,3,0,0,0,2.7,0l2.61-1.51a.82.82,0,0,0,0-1.56L301,189.74A3,3,0,0,0,298.3,189.74Zm6.78,3.91-2.62,1.51a.82.82,0,0,0,0,1.55l2.63,1.52a3,3,0,0,0,2.7,0l2.61-1.51a.82.82,0,0,0,0-1.56l-2.63-1.52A3,3,0,0,0,305.08,193.65Zm6.77,3.91-2.61,1.51c-.75.43-.74,1.12,0,1.55l2.63,1.52a3,3,0,0,0,2.7,0l2.62-1.51a.83.83,0,0,0,0-1.56l-2.63-1.52A3,3,0,0,0,311.85,197.56Zm9.49,8.5,2.62-1.51a.82.82,0,0,0,0-1.56l-2.63-1.52a3,3,0,0,0-2.7,0L316,203a.82.82,0,0,0,0,1.55l2.63,1.52A3,3,0,0,0,321.34,206.06Zm6.78,3.91,2.61-1.51a.82.82,0,0,0,0-1.56l-2.63-1.52a3,3,0,0,0-2.69,0l-2.62,1.51a.82.82,0,0,0,0,1.55l2.63,1.52A3,3,0,0,0,328.12,210Zm9.52.92L335,209.37a3,3,0,0,0-2.7,0l-2.62,1.51c-.74.43-.73,1.12,0,1.56l2.63,1.51a3,3,0,0,0,2.7,0l2.61-1.51A.82.82,0,0,0,337.64,210.89ZM239,167.32l8.49,4.9a3,3,0,0,0,2.7,0l2.61-1.51c.75-.43.74-1.13,0-1.56l-8.49-4.9a3,3,0,0,0-2.69,0L239,165.76A.82.82,0,0,0,239,167.32Zm12.63,7.29,2.63,1.52a3,3,0,0,0,2.7,0l2.62-1.51a.83.83,0,0,0,0-1.56L257,171.55a3,3,0,0,0-2.7,0l-2.61,1.51C250.89,173.48,250.9,174.18,251.64,174.61Zm6.78,3.91,2.63,1.52a3,3,0,0,0,2.69,0l2.62-1.51a.82.82,0,0,0,0-1.56l-2.63-1.52a3,3,0,0,0-2.7,0L258.41,177C257.67,177.39,257.67,178.09,258.42,178.52Zm6.77,3.91,2.63,1.52a3,3,0,0,0,2.7,0l2.61-1.51a.82.82,0,0,0,0-1.56l-2.63-1.52a3,3,0,0,0-2.69,0l-2.62,1.51C264.44,181.3,264.44,182,265.19,182.43Zm12.1,5.44,2.61-1.51a.82.82,0,0,0,0-1.56l-2.63-1.52a3,3,0,0,0-2.7,0L272,184.79c-.74.42-.73,1.12,0,1.55l2.63,1.52A3,3,0,0,0,277.29,187.87Zm6.77,3.91,2.62-1.51a.82.82,0,0,0,0-1.56L284,187.19a3,3,0,0,0-2.7,0l-2.61,1.51c-.75.42-.74,1.12,0,1.55l2.63,1.52A3,3,0,0,0,284.06,191.78Zm6.78,3.91,2.61-1.51a.82.82,0,0,0,0-1.56l-2.63-1.52a3,3,0,0,0-2.7,0l-2.61,1.51a.82.82,0,0,0,0,1.55l2.63,1.52A3,3,0,0,0,290.84,195.69Zm6.77,3.91,2.61-1.51a.82.82,0,0,0,0-1.56L297.58,195a3,3,0,0,0-2.69,0l-2.62,1.51a.82.82,0,0,0,0,1.55l2.63,1.52A3,3,0,0,0,297.61,199.6Zm6.77,3.91L307,202a.82.82,0,0,0,0-1.56l-2.63-1.52a3,3,0,0,0-2.7,0l-2.61,1.51c-.75.43-.74,1.12,0,1.55l2.63,1.52A3,3,0,0,0,304.38,203.51Zm6.77,3.91,2.62-1.51a.82.82,0,0,0,0-1.56l-2.63-1.52a3,3,0,0,0-2.7,0l-2.61,1.51a.82.82,0,0,0,0,1.55l2.63,1.52A3,3,0,0,0,311.15,207.42Zm1.45,2.38,2.63,1.52a3,3,0,0,0,2.7,0l2.61-1.51a.82.82,0,0,0,0-1.56l-2.63-1.52a3,3,0,0,0-2.7,0l-2.61,1.51A.82.82,0,0,0,312.6,209.8Zm18.76,4.71-6.69-3.86a3,3,0,0,0-2.69,0l-2.62,1.51c-.74.43-.73,1.12,0,1.55l6.69,3.87a3,3,0,0,0,2.7,0l2.61-1.51C332.11,215.64,332.11,215,331.36,214.51Zm-98.6-43.38,12.05,7a3.38,3.38,0,0,0,3.05,0l2.26-1.31c.84-.48.84-1.27,0-1.76l-12-7a3.38,3.38,0,0,0-3,0l-2.27,1.31C231.91,169.85,231.92,170.64,232.76,171.13Zm16.55,9.55,2.27,1.31a3.38,3.38,0,0,0,3,0l2.27-1.31c.84-.48.83-1.27,0-1.76l-2.28-1.31a3.38,3.38,0,0,0-3.05,0l-2.26,1.31C248.46,179.4,248.46,180.19,249.31,180.68Zm6.77,3.91,2.28,1.31a3.36,3.36,0,0,0,3,0l2.27-1.31c.84-.48.83-1.27,0-1.76l-2.28-1.31a3.38,3.38,0,0,0-3.05,0l-2.26,1.31C255.23,183.31,255.23,184.1,256.08,184.59Zm6.77,3.91,2.28,1.31a3.38,3.38,0,0,0,3.05,0l2.26-1.31c.84-.48.84-1.27,0-1.76l-2.28-1.31a3.36,3.36,0,0,0-3,0l-2.27,1.31C262,187.22,262,188,262.85,188.5Zm6.77,3.91,2.28,1.31a3.38,3.38,0,0,0,3.05,0l2.26-1.31a.93.93,0,0,0,0-1.76l-2.28-1.31a3.38,3.38,0,0,0-3.05,0l-2.27,1.31A.93.93,0,0,0,269.62,192.41Zm6.78,3.91,2.28,1.31a3.36,3.36,0,0,0,3,0l2.27-1.31c.84-.48.83-1.27,0-1.76l-2.28-1.31a3.38,3.38,0,0,0-3.05,0l-2.26,1.31C275.55,195,275.55,195.83,276.4,196.32Zm6.77,3.91,2.28,1.31a3.38,3.38,0,0,0,3.05,0l2.26-1.31c.84-.48.83-1.27,0-1.76l-2.28-1.31a3.38,3.38,0,0,0-3.05,0l-2.26,1.31C282.32,199,282.33,199.74,283.17,200.23Zm6.77,3.91,2.28,1.32a3.41,3.41,0,0,0,3,0l2.26-1.31c.84-.48.84-1.27,0-1.76l-2.28-1.31a3.36,3.36,0,0,0-3,0l-2.27,1.31C289.09,202.86,289.1,203.65,289.94,204.14Zm6.77,3.91,2.28,1.32a3.38,3.38,0,0,0,3.05,0l2.27-1.31a.93.93,0,0,0,0-1.76L302,205a3.38,3.38,0,0,0-3,0l-2.26,1.31A.93.93,0,0,0,296.71,208.05Zm6.78,3.91,2.28,1.32a3.36,3.36,0,0,0,3,0l2.27-1.31c.84-.48.83-1.27,0-1.76l-2.28-1.31a3.38,3.38,0,0,0-3.05,0l-2.26,1.31C302.64,210.68,302.64,211.47,303.49,212Zm6.77,3.91,2.28,1.32a3.38,3.38,0,0,0,3,0l2.26-1.31c.84-.48.84-1.27,0-1.76l-2.28-1.31a3.36,3.36,0,0,0-3,0l-2.27,1.31C309.41,214.6,309.42,215.38,310.26,215.87Zm14.51,2.25-2.28-1.31a3.38,3.38,0,0,0-3.05,0l-2.27,1.31a.93.93,0,0,0,0,1.76l2.28,1.31a3.38,3.38,0,0,0,3.05,0l2.26-1.31A.93.93,0,0,0,324.77,218.12Zm-87.69-43.38-5.29-3.05a3.36,3.36,0,0,0-3,0L226.48,173c-.84.48-.83,1.27,0,1.76l5.29,3.05a3.36,3.36,0,0,0,3,0l2.27-1.31C237.93,176,237.92,175.23,237.08,174.74Zm6.77,3.91-2.28-1.32a3.38,3.38,0,0,0-3,0l-2.26,1.31a.92.92,0,0,0,0,1.75l2.28,1.32a3.36,3.36,0,0,0,3,0l2.27-1.31C244.7,179.92,244.69,179.14,243.85,178.65Zm6.77,3.91-2.28-1.32a3.36,3.36,0,0,0-3,0L243,182.55a.92.92,0,0,0,0,1.75l2.28,1.32a3.38,3.38,0,0,0,3.05,0l2.26-1.31C251.47,183.83,251.47,183.05,250.62,182.56ZM298,209.93l-42.91-24.78a3.38,3.38,0,0,0-3.05,0l-2.27,1.31a.92.92,0,0,0,0,1.75L292.73,213a3.38,3.38,0,0,0,3,0l2.26-1.31C298.88,211.21,298.88,210.42,298,209.93Zm6.78,3.91-2.28-1.31a3.38,3.38,0,0,0-3,0l-2.27,1.31a.93.93,0,0,0,0,1.76l2.28,1.31a3.38,3.38,0,0,0,3.05,0l2.26-1.31A.93.93,0,0,0,304.81,213.84Zm6.77,3.91-2.28-1.31a3.38,3.38,0,0,0-3.05,0L304,217.74c-.84.48-.84,1.27,0,1.76l2.28,1.31a3.36,3.36,0,0,0,3,0l2.27-1.31C312.43,219,312.42,218.24,311.58,217.75Zm6.91,4-2.28-1.31a3.36,3.36,0,0,0-3,0l-2.27,1.31c-.84.48-.83,1.27,0,1.76l2.28,1.31a3.38,3.38,0,0,0,3.05,0l2.26-1.31C319.34,223,319.34,222.23,318.49,221.74Z" fill="#a8cff0"/><path d="M355.5,203.2l-89.72-51.83c-3.48-2-6.29-7.39-6.29-12V69c0-4.63,2.81-6.76,6.29-4.75l89.72,51.83c3.47,2,6.29,7.38,6.29,12v70.39C361.79,203.08,359,205.21,355.5,203.2Z" fill="#a8cff0"/><path d="M356.31,199.58l-88.77-51.27a10.7,10.7,0,0,1-4.52-9V68.63a1.11,1.11,0,0,1,1.68-1l.2.11,88.83,51.32c3.33,1.92,4.52,5.33,4.52,9v70.56a1.21,1.21,0,0,1-1.8,1Z" fill="#fff"/><path d="M353.73,119.1,264.9,67.78l-.2-.11a1.11,1.11,0,0,0-1.68,1v70.72a10.7,10.7,0,0,0,4.52,9l88.77,51.27.14.09a1.21,1.21,0,0,0,1.8-1V128.06C358.25,124.43,357.06,121,353.73,119.1Zm3.82,79.52a.5.5,0,0,1-.5.5.45.45,0,0,1-.25-.07L267.9,147.7a10,10,0,0,1-4.17-8.35V68.63a.41.41,0,0,1,.41-.41.36.36,0,0,1,.2.06l89,51.44c3.45,2,4.18,5.63,4.18,8.34Z" fill="#022652"/><path d="M357.28,115.1,267.56,63.27a4.26,4.26,0,0,0-3.68-.54c-.13.05-1.89,1-2,1.05h0a4.12,4.12,0,0,1,3.92.44l89.72,51.83c3.47,2,6.29,7.38,6.29,12v70.39c0,2.89-1.1,4.8-2.77,5.35a1.15,1.15,0,0,0,.55-.19c.08-.05,2-1.12,2.06-1.18,1.19-.83,1.94-2.55,1.94-4.93V127.12C363.57,122.48,360.75,117.1,357.28,115.1Z" fill="#3f92d1"/><path d="M357.28,115.1,267.56,63.27a4.26,4.26,0,0,0-3.68-.54c-.13.05-1.89,1-2,1.05h0a4.12,4.12,0,0,1,3.92.44l89.72,51.83Z" fill="#4f9fdb"/><path d="M355.8,115.89,266.08,64.06a4.17,4.17,0,0,0-3.79-.48,4.68,4.68,0,0,1,3,.71L355,116.12c3.48,2,6.29,7.39,6.29,12v70.38c0,2.73-1,4.58-2.5,5.24,1.94-.31,3.26-2.3,3.26-5.47V127.91C362.09,123.28,359.27,117.9,355.8,115.89Z" fill="#fff" style="mix-blend-mode:screen"/><path d="M70.37,235.38h0A15.25,15.25,0,0,1,63,233.52l-46.69-27c-2.13-1.23-3.35-2.9-3.35-4.57a4.25,4.25,0,0,1,2.44-3.61L132.3,130.25a11.76,11.76,0,0,1,5.76-1.34,15.29,15.29,0,0,1,7.42,1.86l46.68,26.95c2.13,1.23,3.35,2.9,3.35,4.58a4.28,4.28,0,0,1-2.44,3.61L76.13,234A11.73,11.73,0,0,1,70.37,235.38Zm67.69-105.47a10.79,10.79,0,0,0-5.26,1.2L15.87,199.25A3.31,3.31,0,0,0,13.92,202c0,1.3,1,2.66,2.85,3.7l46.69,27a14.16,14.16,0,0,0,6.91,1.73,10.79,10.79,0,0,0,5.26-1.2L192.57,165a3.32,3.32,0,0,0,1.94-2.74c0-1.31-1-2.66-2.85-3.71l-46.68-27A14.2,14.2,0,0,0,138.06,129.91Z" fill="#92b4d1"/><polygon points="153.18 175.88 153.18 182.9 103.41 154.08 103.41 147.06 153.18 175.88" fill="#a8cff0"/><polygon points="153.16 175.88 153.16 182.9 187.03 163.15 187.03 156.16 153.16 175.88" fill="#72b5e8"/><polygon points="187.03 156.16 153.16 175.88 103.41 147.06 152.74 136.39 187.03 156.16" fill="#d1ebff"/><polygon points="153.17 163.62 153.17 174.78 105.22 147.01 105.22 135.85 153.17 163.62" fill="#2672ab"/><polygon points="153.15 163.62 153.15 174.78 185.23 156.09 185.23 144.94 153.15 163.62" fill="#084c94"/><polygon points="153.18 146.29 153.18 172.48 103.41 143.66 103.41 117.47 153.18 146.29" fill="#a8cff0"/><polygon points="153.16 146.29 153.16 172.48 187.03 152.74 187.03 126.56 153.16 146.29" fill="#72b5e8"/><polygon points="187.03 126.56 153.16 146.29 103.41 117.47 137.32 97.72 187.03 126.56" fill="#d1ebff"/><polygon points="153.17 134.03 153.17 145.19 105.22 117.41 105.22 106.25 153.17 134.03" fill="#2672ab"/><polygon points="153.15 134.03 153.15 145.19 185.23 126.49 185.23 115.35 153.15 134.03" fill="#084c94"/><polygon points="153.18 146.25 153.18 172.44 103.41 143.62 103.41 117.43 153.18 146.25" fill="#a8cff0"/><polygon points="153.16 146.25 153.16 172.44 187.03 152.69 187.03 126.52 153.16 146.25" fill="#72b5e8"/><polygon points="187.03 126.52 153.16 146.25 103.41 117.43 137.32 97.68 187.03 126.52" fill="#d1ebff"/><polygon points="153.17 133.98 153.17 145.15 105.22 117.37 105.22 106.21 153.17 133.98" fill="#2672ab"/><polygon points="153.15 133.98 153.15 145.15 185.23 126.45 185.23 115.31 153.15 133.98" fill="#084c94"/><polygon points="155.41 148.94 155.41 166.82 184.92 149.62 184.92 131.75 155.41 148.94" fill="#d1ebff"/><polygon points="155.72 149.19 155.72 167.07 185.24 149.87 185.24 132 155.72 149.19" fill="#3f92d1"/><polygon points="184.28 149.32 184.28 133.66 156.68 149.74 156.68 165.41 184.28 149.32" fill="#72b5e8"/><polygon points="182.41 143.21 182.41 137.31 158.69 150.93 158.69 156.84 182.41 143.21" fill="#03336e"/><polygon points="181.66 137.74 181.66 142.77 158.69 155.97 158.69 156.84 182.41 143.21 182.41 137.31 181.66 137.74" fill="#001a46"/><polygon points="162.43 152.75 160.81 153.68 160.81 151.84 162.43 150.91 162.43 152.75" fill="#ffd70f"/><polygon points="165.45 151.01 163.84 151.94 163.84 150.09 165.45 149.16 165.45 151.01" fill="#ffd70f"/><polygon points="168.47 149.26 166.86 150.19 166.86 148.34 168.47 147.41 168.47 149.26" fill="#ffd70f"/><polygon points="171.5 147.52 169.89 148.45 169.89 146.6 171.5 145.67 171.5 147.52" fill="#eb4680"/><polygon points="174.52 145.77 172.91 146.7 172.91 144.85 174.52 143.92 174.52 145.77" fill="#eb4680"/><polygon points="177.54 144.02 175.94 144.95 175.94 143.11 177.54 142.18 177.54 144.02" fill="#0fbab8"/><polygon points="180.57 142.28 178.96 143.21 178.96 141.36 180.57 140.43 180.57 142.28" fill="#0fbab8"/><polygon points="153.18 116.62 153.18 142.81 103.41 114 103.41 87.8 153.18 116.62" fill="#a8cff0"/><polygon points="153.16 116.62 153.16 142.81 187.03 123.07 187.03 96.9 153.16 116.62" fill="#72b5e8"/><polygon points="187.03 96.9 153.16 116.62 103.41 87.8 137.32 68.06 187.03 96.9" fill="#d1ebff"/><polygon points="153.17 104.36 153.17 115.52 105.22 87.75 105.22 76.58 153.17 104.36" fill="#2672ab"/><polygon points="153.15 104.36 153.15 115.52 185.23 96.82 185.23 85.68 153.15 104.36" fill="#084c94"/><polygon points="153.18 116.54 153.18 142.73 103.41 113.91 103.41 87.72 153.18 116.54" fill="#a8cff0"/><polygon points="153.16 116.54 153.16 142.73 187.03 122.99 187.03 96.81 153.16 116.54" fill="#72b5e8"/><polygon points="187.03 96.81 153.16 116.54 103.41 87.72 137.32 67.97 187.03 96.81" fill="#d1ebff"/><polygon points="153.17 104.28 153.17 115.44 105.22 87.66 105.22 76.5 153.17 104.28" fill="#2672ab"/><polygon points="153.15 104.28 153.15 115.44 185.23 96.74 185.23 85.6 153.15 104.28" fill="#084c94"/><polygon points="153.18 86.87 153.18 113.06 103.41 84.25 103.41 58.05 153.18 86.87" fill="#a8cff0"/><polygon points="153.16 86.87 153.16 113.06 187.03 93.32 187.03 67.15 153.16 86.87" fill="#72b5e8"/><polygon points="187.03 67.15 153.16 86.87 103.41 58.05 137.32 38.31 187.03 67.15" fill="#d1ebff"/><polygon points="153.17 74.61 153.17 85.77 105.22 58 105.22 46.84 153.17 74.61" fill="#2672ab"/><polygon points="153.15 74.61 153.15 85.77 185.23 67.07 185.23 55.93 153.15 74.61" fill="#084c94"/><polygon points="155.41 89.57 155.41 107.45 184.92 90.25 184.92 72.38 155.41 89.57" fill="#d1ebff"/><polygon points="155.72 89.82 155.72 107.7 185.24 90.5 185.24 72.63 155.72 89.82" fill="#3f92d1"/><polygon points="184.28 89.95 184.28 74.29 156.68 90.36 156.68 106.04 184.28 89.95" fill="#72b5e8"/><polygon points="182.41 83.83 182.41 77.93 158.69 91.55 158.69 97.47 182.41 83.83" fill="#03336e"/><polygon points="181.66 78.36 181.66 83.4 158.69 96.6 158.69 97.47 182.41 83.83 182.41 77.93 181.66 78.36" fill="#001a46"/><polygon points="162.43 93.38 160.81 94.31 160.81 92.46 162.43 91.53 162.43 93.38" fill="#ffd70f"/><polygon points="165.45 91.63 163.84 92.56 163.84 90.72 165.45 89.79 165.45 91.63" fill="#ffd70f"/><polygon points="168.47 89.89 166.86 90.82 166.86 88.97 168.47 88.04 168.47 89.89" fill="#ffd70f"/><polygon points="171.5 88.14 169.89 89.07 169.89 87.22 171.5 86.29 171.5 88.14" fill="#eb4680"/><polygon points="174.52 86.39 172.91 87.33 172.91 85.48 174.52 84.55 174.52 86.39" fill="#eb4680"/><polygon points="177.54 84.65 175.94 85.58 175.94 83.73 177.54 82.8 177.54 84.65" fill="#0fbab8"/><polygon points="180.57 82.9 178.96 83.83 178.96 81.99 180.57 81.06 180.57 82.9" fill="#0fbab8"/><polygon points="155.41 119.32 155.41 137.2 184.92 120 184.92 102.13 155.41 119.32" fill="#d1ebff"/><polygon points="155.72 119.57 155.72 137.45 185.24 120.25 185.24 102.38 155.72 119.57" fill="#3f92d1"/><polygon points="184.28 119.7 184.28 104.04 156.68 120.11 156.68 135.79 184.28 119.7" fill="#72b5e8"/><polygon points="182.41 113.58 182.41 107.68 158.69 121.3 158.69 127.22 182.41 113.58" fill="#03336e"/><polygon points="181.66 108.11 181.66 113.15 158.69 126.35 158.69 127.22 182.41 113.58 182.41 107.68 181.66 108.11" fill="#001a46"/><polygon points="162.43 123.13 160.81 124.06 160.81 122.21 162.43 121.28 162.43 123.13" fill="#ffd70f"/><polygon points="165.45 121.38 163.84 122.31 163.84 120.47 165.45 119.54 165.45 121.38" fill="#ffd70f"/><polygon points="168.47 119.64 166.86 120.57 166.86 118.72 168.47 117.79 168.47 119.64" fill="#ffd70f"/><polygon points="171.5 117.89 169.89 118.82 169.89 116.97 171.5 116.04 171.5 117.89" fill="#eb4680"/><polygon points="174.52 116.14 172.91 117.08 172.91 115.23 174.52 114.3 174.52 116.14" fill="#eb4680"/><polygon points="177.54 114.4 175.94 115.33 175.94 113.48 177.54 112.55 177.54 114.4" fill="#0fbab8"/><polygon points="180.57 112.65 178.96 113.58 178.96 111.74 180.57 110.81 180.57 112.65" fill="#0fbab8"/><polygon points="153.18 57.2 153.18 83.4 103.41 54.58 103.41 28.38 153.18 57.2" fill="#a8cff0"/><polygon points="153.16 57.2 153.16 83.4 187.03 63.65 187.03 37.48 153.16 57.2" fill="#72b5e8"/><polygon points="187.03 37.48 153.16 57.2 103.41 28.38 137.32 8.64 187.03 37.48" fill="#d1ebff"/><polygon points="187.03 37.48 153.16 57.2 103.41 28.38 153.19 56.47 187.03 37.48" fill="#fff"/><polygon points="155.35 59.84 155.35 77.72 184.86 60.52 184.86 42.65 155.35 59.84" fill="#d1ebff"/><polygon points="155.72 60.15 155.72 78.03 185.24 60.83 185.24 42.96 155.72 60.15" fill="#3f92d1"/><polygon points="184.28 60.28 184.28 44.62 156.68 60.7 156.68 76.37 184.28 60.28" fill="#72b5e8"/><polygon points="182.41 54.17 182.41 48.27 158.69 61.89 158.69 67.8 182.41 54.17" fill="#03336e"/><polygon points="181.73 48.66 181.73 53.79 158.69 67.03 158.69 67.8 182.41 54.17 182.41 48.27 181.73 48.66" fill="#001a46"/><polygon points="162.43 63.71 160.81 64.64 160.81 62.8 162.43 61.87 162.43 63.71" fill="#ffd70f"/><polygon points="165.45 61.97 163.84 62.9 163.84 61.05 165.45 60.12 165.45 61.97" fill="#eb4680"/><polygon points="168.47 60.22 166.86 61.15 166.86 59.3 168.47 58.37 168.47 60.22" fill="#eb4680"/><polygon points="171.5 58.48 169.89 59.4 169.89 57.56 171.5 56.63 171.5 58.48" fill="#eb4680"/><polygon points="174.52 56.73 172.91 57.66 172.91 55.81 174.52 54.88 174.52 56.73" fill="#0fbab8"/><polygon points="177.54 54.98 175.94 55.91 175.94 54.06 177.54 53.13 177.54 54.98" fill="#0fbab8"/><polygon points="180.57 53.24 178.96 54.17 178.96 52.32 180.57 51.39 180.57 53.24" fill="#0fbab8"/><polygon points="111.68 199.88 111.68 206.9 61.91 178.08 61.91 171.06 111.68 199.88" fill="#a8cff0"/><polygon points="111.66 199.88 111.66 206.9 145.53 187.15 145.53 180.16 111.66 199.88" fill="#72b5e8"/><polygon points="145.53 180.16 111.66 199.88 61.91 171.06 111.24 160.39 145.53 180.16" fill="#d1ebff"/><polygon points="111.67 187.62 111.67 198.78 63.72 171.01 63.72 159.85 111.67 187.62" fill="#2672ab"/><polygon points="111.65 187.62 111.65 198.78 143.73 180.09 143.73 168.94 111.65 187.62" fill="#084c94"/><polygon points="111.68 170.29 111.68 196.48 61.91 167.66 61.91 141.47 111.68 170.29" fill="#a8cff0"/><polygon points="111.66 170.29 111.66 196.48 145.53 176.74 145.53 150.56 111.66 170.29" fill="#72b5e8"/><polygon points="145.53 150.56 111.66 170.29 61.91 141.47 95.82 121.72 145.53 150.56" fill="#d1ebff"/><polygon points="111.67 158.03 111.67 169.19 63.72 141.41 63.72 130.25 111.67 158.03" fill="#2672ab"/><polygon points="111.65 158.03 111.65 169.19 143.73 150.49 143.73 139.35 111.65 158.03" fill="#084c94"/><polygon points="115.33 171.93 115.33 189.03 141.63 174.16 141.63 157.08 115.33 171.93" fill="#2672ab"/><path d="M115,171.72l27-15.26v17.91l-27,15.27Zm26.3-14-25.58,14.45v16.27L141.27,174Z" fill="#3f92d1"/><polygon points="174.48 183.31 174.48 197.42 122.97 168.21 135.49 161.15 174.48 183.31" fill="#a8cff0"/><polygon points="175.92 182.47 174.46 183.31 135.49 161.15 136.98 160.29 175.92 182.47" fill="#d1ebff"/><path d="M130,165.55v1.56l10.49-6.05a.56.56,0,0,1,.84.48v16.51l-20,11.64a1.49,1.49,0,0,1-1.51,0l-.43-.27a1.33,1.33,0,0,1-.63-1.13V172a1.51,1.51,0,0,1,.76-1.31l9.67-5.59A.56.56,0,0,1,130,165.55Z" fill="#fc0"/><path d="M140.71,161.25l-10.49,6.06V167l10.26-5.92a.55.55,0,0,1,.74.17A.54.54,0,0,0,140.71,161.25Z" fill="#ffde17"/><path d="M119.48,170.66l9.67-5.59a.55.55,0,0,1,.74.17.54.54,0,0,0-.51,0l-9.68,5.59a1.52,1.52,0,0,0-.75,1.31v16.3a1.36,1.36,0,0,0,.36.92,1.34,1.34,0,0,1-.59-1.11V172A1.51,1.51,0,0,1,119.48,170.66Z" fill="#ffde17"/><polygon points="142.35 176.33 119.75 189.38 119.75 175.02 142.35 161.98 142.35 176.33" fill="#fff"/><path d="M142.17,177.6l-20.92,12.08a1.44,1.44,0,0,1-1.41,0l-.14-.08.14.06a.52.52,0,0,0,.71-.49V177.62a1.51,1.51,0,0,1,.76-1.31l21-12.13a.56.56,0,0,1,.83.49V175.9A2,2,0,0,1,142.17,177.6Z" fill="#fc0"/><path d="M119.84,189.68a.52.52,0,0,0,.71-.49V177.62a1.51,1.51,0,0,1,.76-1.31l21-12.13a.55.55,0,0,1,.69.12.53.53,0,0,0-.49,0l-21,12.13a1.51,1.51,0,0,0-.76,1.31v11.56a.51.51,0,0,1-.45.52,1.31,1.31,0,0,1-.46-.15l-.14-.08Z" fill="#ffde17"/><path d="M134.47,168.23v1.56L145,163.73a.56.56,0,0,1,.84.48v16.52l-20,11.64a1.49,1.49,0,0,1-1.51,0l-.43-.27a1.33,1.33,0,0,1-.63-1.14v-16.3a1.51,1.51,0,0,1,.76-1.31l9.67-5.58A.56.56,0,0,1,134.47,168.23Z" fill="#fc0"/><path d="M145.19,163.92,134.7,170v-.32L145,163.73a.57.57,0,0,1,.74.17A.57.57,0,0,0,145.19,163.92Z" fill="#ffde17"/><path d="M124,173.33l9.67-5.58a.55.55,0,0,1,.74.17.54.54,0,0,0-.51,0l-9.67,5.58a1.52,1.52,0,0,0-.76,1.32v16.29a1.33,1.33,0,0,0,.36.92,1.32,1.32,0,0,1-.59-1.11v-16.3A1.51,1.51,0,0,1,124,173.33Z" fill="#ffde17"/><polygon points="146.83 179.01 124.23 192.06 124.23 177.7 146.83 164.65 146.83 179.01" fill="#fff"/><path d="M146.65,180.28l-20.91,12.07a1.46,1.46,0,0,1-1.42,0l-.14-.07.15,0a.51.51,0,0,0,.7-.48V180.3a1.51,1.51,0,0,1,.76-1.31l21-12.13a.56.56,0,0,1,.83.48v11.24A2,2,0,0,1,146.65,180.28Z" fill="#fc0"/><path d="M124.33,192.35a.51.51,0,0,0,.7-.48V180.3a1.51,1.51,0,0,1,.76-1.31l21-12.13a.55.55,0,0,1,.69.12.51.51,0,0,0-.49,0l-21,12.12a1.51,1.51,0,0,0-.76,1.31V192a.53.53,0,0,1-.44.52,1.54,1.54,0,0,1-.47-.16l-.14-.07Z" fill="#ffde17"/><path d="M139,170.85v1.56l10.49-6.06a.56.56,0,0,1,.84.48v16.52l-20,11.64a1.46,1.46,0,0,1-1.51,0l-.43-.26a1.35,1.35,0,0,1-.63-1.14v-16.3a1.51,1.51,0,0,1,.76-1.31l9.67-5.59A.57.57,0,0,1,139,170.85Z" fill="#d62d69"/><path d="M149.73,166.54l-10.49,6.06v-.32l10.26-5.93a.56.56,0,0,1,.74.17A.57.57,0,0,0,149.73,166.54Z" fill="#f76195"/><path d="M128.5,176l9.67-5.59a.57.57,0,0,1,.74.17.55.55,0,0,0-.51,0l-9.68,5.58a1.52,1.52,0,0,0-.75,1.31v16.3a1.33,1.33,0,0,0,.36.92,1.33,1.33,0,0,1-.59-1.11v-16.3A1.51,1.51,0,0,1,128.5,176Z" fill="#f76195"/><polygon points="151.37 181.63 128.77 194.67 128.77 180.32 151.37 167.27 151.37 181.63" fill="#fff"/><path d="M151.19,182.9,130.27,195a1.44,1.44,0,0,1-1.41,0l-.14-.07.14.05a.52.52,0,0,0,.71-.48V182.92a1.51,1.51,0,0,1,.76-1.31l21-12.13a.55.55,0,0,1,.83.48V181.2A2,2,0,0,1,151.19,182.9Z" fill="#d62d69"/><path d="M128.86,195a.52.52,0,0,0,.71-.48V182.92a1.51,1.51,0,0,1,.76-1.31l21-12.13a.55.55,0,0,1,.69.12.53.53,0,0,0-.49,0l-21,12.13a1.51,1.51,0,0,0-.76,1.31v11.57a.53.53,0,0,1-.45.52,1.57,1.57,0,0,1-.46-.16l-.14-.07Z" fill="#f76195"/><path d="M143.49,173.52v1.57L154,169a.56.56,0,0,1,.84.48V186l-20,11.64a1.44,1.44,0,0,1-1.51,0l-.43-.26a1.36,1.36,0,0,1-.63-1.14v-16.3a1.51,1.51,0,0,1,.76-1.31l9.67-5.59A.56.56,0,0,1,143.49,173.52Z" fill="#d62d69"/><path d="M154.21,169.22l-10.49,6.06V175L154,169a.55.55,0,0,1,.74.17A.54.54,0,0,0,154.21,169.22Z" fill="#f76195"/><path d="M133,178.63l9.67-5.59a.57.57,0,0,1,.74.17.57.57,0,0,0-.51,0l-9.67,5.59a1.51,1.51,0,0,0-.76,1.31v16.3a1.31,1.31,0,0,0,.37.92,1.32,1.32,0,0,1-.6-1.11v-16.3A1.51,1.51,0,0,1,133,178.63Z" fill="#f76195"/><polygon points="155.85 184.3 133.25 197.35 133.25 183 155.85 169.95 155.85 184.3" fill="#fff"/><path d="M155.67,185.57l-20.91,12.08a1.46,1.46,0,0,1-1.42,0l-.14-.07.15.05a.52.52,0,0,0,.7-.49V185.6a1.51,1.51,0,0,1,.76-1.31l21-12.13a.55.55,0,0,1,.83.48v11.24A1.94,1.94,0,0,1,155.67,185.57Z" fill="#d62d69"/><path d="M133.35,197.65a.52.52,0,0,0,.7-.49V185.6a1.51,1.51,0,0,1,.76-1.31l21-12.13a.56.56,0,0,1,.69.11.57.57,0,0,0-.49,0l-21,12.13a1.51,1.51,0,0,0-.76,1.31v11.57a.51.51,0,0,1-.44.51,1.29,1.29,0,0,1-.47-.15l-.14-.07Z" fill="#f76195"/><path d="M148,176.2v1.56l10.49-6.06a.57.57,0,0,1,.84.49V188.7l-20,11.64a1.49,1.49,0,0,1-1.51,0l-.43-.27a1.33,1.33,0,0,1-.63-1.14V182.62a1.51,1.51,0,0,1,.76-1.31l9.67-5.59A.56.56,0,0,1,148,176.2Z" fill="#d62d69"/><path d="M158.69,171.9l-10.49,6v-.32l10.26-5.93a.57.57,0,0,1,.74.17A.55.55,0,0,0,158.69,171.9Z" fill="#f76195"/><path d="M137.46,181.31l9.67-5.59a.55.55,0,0,1,.74.17.54.54,0,0,0-.51,0l-9.67,5.59a1.51,1.51,0,0,0-.76,1.31v16.3a1.33,1.33,0,0,0,.37.92,1.36,1.36,0,0,1-.6-1.12V182.62A1.51,1.51,0,0,1,137.46,181.31Z" fill="#f76195"/><polygon points="160.33 186.98 137.73 200.03 137.73 185.67 160.33 172.63 160.33 186.98" fill="#fff"/><path d="M160.15,188.25l-20.91,12.08a1.46,1.46,0,0,1-1.42,0l-.14-.08.15.06a.52.52,0,0,0,.7-.49V188.27a1.51,1.51,0,0,1,.76-1.31l21-12.13a.56.56,0,0,1,.83.49v11.23A2,2,0,0,1,160.15,188.25Z" fill="#d62d69"/><path d="M137.83,200.33a.52.52,0,0,0,.7-.49V188.27a1.51,1.51,0,0,1,.76-1.31l21-12.13a.55.55,0,0,1,.69.12.53.53,0,0,0-.49,0l-21,12.13a1.5,1.5,0,0,0-.75,1.31V200a.52.52,0,0,1-.45.52,1.36,1.36,0,0,1-.47-.15l-.14-.08Z" fill="#f76195"/><path d="M152.51,178.82v1.56L163,174.32a.56.56,0,0,1,.84.48v15.59l-20,11.64a1.49,1.49,0,0,1-1.51,0l-.43-.27a1.33,1.33,0,0,1-.63-1.14V185.24a1.52,1.52,0,0,1,.76-1.32l9.67-5.58A.56.56,0,0,1,152.51,178.82Z" fill="#0ba19f"/><path d="M163.23,174.51l-10.49,6.06v-.32L163,174.32a.57.57,0,0,1,.74.17A.57.57,0,0,0,163.23,174.51Z" fill="#3ecfcd"/><path d="M142,183.92l9.67-5.58a.55.55,0,0,1,.74.17.54.54,0,0,0-.51,0l-9.67,5.59a1.51,1.51,0,0,0-.76,1.31v15.36a1.29,1.29,0,0,0,.37.92,1.3,1.3,0,0,1-.6-1.11V185.24A1.52,1.52,0,0,1,142,183.92Z" fill="#3ecfcd"/><polygon points="164.87 188.67 142.27 201.72 142.27 188.29 164.87 175.24 164.87 188.67" fill="#fff"/><path d="M164.69,189.94,143.78,202a1.44,1.44,0,0,1-1.42,0l-.14-.07.15,0a.51.51,0,0,0,.7-.48V190.89a1.51,1.51,0,0,1,.76-1.31l21-12.13a.56.56,0,0,1,.83.48v10.31A2,2,0,0,1,164.69,189.94Z" fill="#0ba19f"/><path d="M142.37,202a.51.51,0,0,0,.7-.48V190.89a1.51,1.51,0,0,1,.76-1.31l21-12.13a.55.55,0,0,1,.69.12.53.53,0,0,0-.49,0l-21,12.12a1.53,1.53,0,0,0-.76,1.32v10.63a.53.53,0,0,1-.44.52,1.54,1.54,0,0,1-.47-.16l-.14-.07Z" fill="#3ecfcd"/><path d="M157,181.5v1.56L167.48,177a.56.56,0,0,1,.84.48v15.59l-20,11.63a1.44,1.44,0,0,1-1.51,0l-.43-.26a1.36,1.36,0,0,1-.63-1.14V187.91a1.51,1.51,0,0,1,.76-1.31l9.67-5.59A.57.57,0,0,1,157,181.5Z" fill="#0ba19f"/><path d="M167.71,177.19l-10.49,6.06v-.32L167.48,177a.56.56,0,0,1,.74.17A.54.54,0,0,0,167.71,177.19Z" fill="#3ecfcd"/><path d="M146.48,186.6l9.67-5.59a.57.57,0,0,1,.74.17.55.55,0,0,0-.51,0l-9.67,5.58a1.51,1.51,0,0,0-.76,1.31v15.37a1.29,1.29,0,0,0,.37.92,1.34,1.34,0,0,1-.6-1.11V187.91A1.51,1.51,0,0,1,146.48,186.6Z" fill="#3ecfcd"/><polygon points="169.35 191.35 146.75 204.39 146.75 190.97 169.35 177.92 169.35 191.35" fill="#fff"/><path d="M169.17,192.61l-20.91,12.08a1.46,1.46,0,0,1-1.42,0l-.14-.07.15.05a.52.52,0,0,0,.7-.49V193.57a1.51,1.51,0,0,1,.76-1.31l21-12.13a.55.55,0,0,1,.83.48v10.31A1.94,1.94,0,0,1,169.17,192.61Z" fill="#0ba19f"/><path d="M146.85,204.69a.52.52,0,0,0,.7-.49V193.57a1.51,1.51,0,0,1,.76-1.31l21-12.13a.55.55,0,0,1,.69.12.53.53,0,0,0-.49,0l-21,12.13a1.5,1.5,0,0,0-.75,1.31v10.64a.52.52,0,0,1-.45.51,1.36,1.36,0,0,1-.47-.15l-.14-.07Z" fill="#3ecfcd"/><polygon points="150.99 197.69 150.99 208.31 115.73 188.24 115.73 177.62 150.99 197.69" fill="#a8cff0"/><polygon points="152.42 196.86 150.97 197.69 115.73 177.62 115.73 175.87 152.42 196.86" fill="#d1ebff"/><polygon points="150.65 194.32 150.65 212.2 149.03 211.27 149.03 193.39 150.65 194.32" fill="#a8cff0"/><polygon points="150.64 194.32 150.64 212.2 180.15 195 180.15 177.13 150.64 194.32" fill="#3f92d1"/><polygon points="179.2 194.45 179.2 178.79 151.59 194.87 151.59 210.54 179.2 194.45" fill="#72b5e8"/><polygon points="180.15 177.13 150.64 194.32 149.03 193.39 178.58 176.18 180.15 177.13" fill="#d1ebff"/><polygon points="179.91 177.01 179.91 177.47 150.79 194.44 150.79 211.85 150.4 212.08 150.4 194.2 179.91 177.01" fill="#fff"/><polygon points="177.25 188.5 177.25 182.6 153.53 196.22 153.53 202.13 177.25 188.5" fill="#03336e"/><polygon points="176.43 183.07 176.43 188.25 153.53 201.42 153.53 202.13 177.25 188.5 177.25 182.6 176.43 183.07" fill="#001a46"/><polygon points="157.26 198.05 155.65 198.97 155.65 197.13 157.26 196.2 157.26 198.05" fill="#ffd70f"/><polygon points="160.28 196.3 158.67 197.23 158.67 195.38 160.28 194.45 160.28 196.3" fill="#ffd70f"/><polygon points="163.31 194.55 161.7 195.48 161.7 193.64 163.31 192.71 163.31 194.55" fill="#eb4680"/><polygon points="166.33 192.81 164.72 193.74 164.72 191.89 166.33 190.96 166.33 192.81" fill="#eb4680"/><polygon points="169.35 191.06 167.75 191.99 167.75 190.14 169.35 189.22 169.35 191.06" fill="#eb4680"/><polygon points="172.38 189.32 170.77 190.25 170.77 188.4 172.38 187.47 172.38 189.32" fill="#0fbab8"/><polygon points="175.4 187.57 173.79 188.5 173.79 186.65 175.4 185.72 175.4 187.57" fill="#0fbab8"/><polygon points="111.68 140.54 111.68 166.73 61.91 137.91 61.91 111.72 111.68 140.54" fill="#a8cff0"/><polygon points="111.66 140.54 111.66 166.73 145.53 146.99 145.53 120.81 111.66 140.54" fill="#72b5e8"/><polygon points="145.53 120.81 111.66 140.54 61.91 111.72 95.82 91.97 145.53 120.81" fill="#d1ebff"/><polygon points="111.67 128.28 111.67 139.44 63.72 111.66 63.72 100.5 111.67 128.28" fill="#2672ab"/><polygon points="111.65 128.28 111.65 139.44 143.73 120.74 143.73 109.6 111.65 128.28" fill="#084c94"/><polygon points="115.33 142.18 115.33 159.28 141.63 144.41 141.63 127.33 115.33 142.18" fill="#2672ab"/><path d="M115,142l27-15.26v17.91l-27,15.27Zm26.3-14-25.58,14.45v16.27l25.58-14.46Z" fill="#3f92d1"/><polygon points="160.94 146.45 160.94 160.57 122.97 138.46 135.49 131.4 160.94 146.45" fill="#a8cff0"/><polygon points="162.37 145.62 160.91 146.45 135.49 131.4 136.98 130.54 162.37 145.62" fill="#d1ebff"/><path d="M130.58,136.91v1.56l10.5-6.06a.56.56,0,0,1,.83.48v16.52l-20,11.64a1.49,1.49,0,0,1-1.51,0l-.43-.27a1.32,1.32,0,0,1-.64-1.14v-16.3a1.51,1.51,0,0,1,.76-1.31l9.68-5.58A.55.55,0,0,1,130.58,136.91Z" fill="#d62d69"/><path d="M141.31,132.6l-10.5,6.06v-.32l10.27-5.93a.56.56,0,0,1,.73.17A.55.55,0,0,0,141.31,132.6Z" fill="#f76195"/><path d="M120.07,142l9.68-5.58a.54.54,0,0,1,.73.17.52.52,0,0,0-.5,0l-9.68,5.58a1.52,1.52,0,0,0-.76,1.32v16.29a1.34,1.34,0,0,0,.37.92,1.33,1.33,0,0,1-.6-1.11v-16.3A1.51,1.51,0,0,1,120.07,142Z" fill="#f76195"/><polygon points="142.94 147.69 120.35 160.74 120.35 146.38 142.94 133.33 142.94 147.69" fill="#fff"/><path d="M142.77,149,121.85,161a1.44,1.44,0,0,1-1.41,0l-.14-.07.14.05a.52.52,0,0,0,.71-.48V149a1.51,1.51,0,0,1,.76-1.31l21-12.13a.56.56,0,0,1,.84.48v11.24A2,2,0,0,1,142.77,149Z" fill="#d62d69"/><path d="M120.44,161a.52.52,0,0,0,.71-.48V149a1.51,1.51,0,0,1,.76-1.31l21-12.13a.56.56,0,0,1,.7.12.53.53,0,0,0-.5,0l-21,12.12a1.51,1.51,0,0,0-.76,1.31v11.57a.53.53,0,0,1-.45.52,1.48,1.48,0,0,1-.46-.16l-.14-.07Z" fill="#f76195"/><path d="M135.12,139.53v1.56l10.5-6.06a.55.55,0,0,1,.83.48V152l-20,11.64a1.48,1.48,0,0,1-1.52,0l-.42-.26a1.33,1.33,0,0,1-.64-1.14v-16.3a1.51,1.51,0,0,1,.76-1.31l9.68-5.59A.56.56,0,0,1,135.12,139.53Z" fill="#d62d69"/><path d="M145.85,135.22l-10.5,6.06V141L145.62,135a.55.55,0,0,1,.73.17A.55.55,0,0,0,145.85,135.22Z" fill="#f76195"/><path d="M124.61,144.63l9.68-5.59a.56.56,0,0,1,.73.17.53.53,0,0,0-.5,0l-9.68,5.58a1.51,1.51,0,0,0-.76,1.31v16.3a1.34,1.34,0,0,0,.37.92,1.34,1.34,0,0,1-.6-1.11v-16.3A1.51,1.51,0,0,1,124.61,144.63Z" fill="#f76195"/><polygon points="147.48 150.31 124.89 163.35 124.89 149 147.48 135.95 147.48 150.31" fill="#fff"/><path d="M147.31,151.58l-20.92,12.07a1.46,1.46,0,0,1-1.42,0l-.13-.07.14.05a.52.52,0,0,0,.71-.48V151.6a1.51,1.51,0,0,1,.76-1.31l21-12.13a.56.56,0,0,1,.84.48v11.24A2,2,0,0,1,147.31,151.58Z" fill="#d62d69"/><path d="M125,163.65a.52.52,0,0,0,.71-.48V151.6a1.51,1.51,0,0,1,.76-1.31l21-12.13a.54.54,0,0,1,.69.12.53.53,0,0,0-.49,0l-21,12.13a1.51,1.51,0,0,0-.76,1.31v11.57a.54.54,0,0,1-.45.52,1.63,1.63,0,0,1-.47-.16l-.13-.07Z" fill="#f76195"/><path d="M139.6,142.2v1.57l10.5-6.06a.55.55,0,0,1,.83.48V154.7l-20,11.64a1.44,1.44,0,0,1-1.51,0l-.43-.26a1.35,1.35,0,0,1-.64-1.14v-16.3a1.51,1.51,0,0,1,.76-1.31l9.68-5.59A.55.55,0,0,1,139.6,142.2Z" fill="#d62d69"/><path d="M150.33,137.9,139.83,144v-.33l10.27-5.92a.54.54,0,0,1,.73.17A.52.52,0,0,0,150.33,137.9Z" fill="#f76195"/><path d="M129.09,147.31l9.68-5.59a.56.56,0,0,1,.73.17.55.55,0,0,0-.5,0l-9.68,5.59a1.51,1.51,0,0,0-.76,1.31v16.3a1.35,1.35,0,0,0,.37.92,1.34,1.34,0,0,1-.6-1.11v-16.3A1.51,1.51,0,0,1,129.09,147.31Z" fill="#f76195"/><polygon points="151.96 152.98 129.37 166.03 129.37 151.68 151.96 138.63 151.96 152.98" fill="#fff"/><path d="M151.79,154.25l-20.92,12.08a1.44,1.44,0,0,1-1.41,0l-.14-.07.14.05a.52.52,0,0,0,.71-.49V154.28a1.51,1.51,0,0,1,.76-1.31l21-12.13a.56.56,0,0,1,.84.48v11.24A2,2,0,0,1,151.79,154.25Z" fill="#d62d69"/><path d="M129.46,166.33a.52.52,0,0,0,.71-.49V154.28a1.51,1.51,0,0,1,.76-1.31l21-12.13a.57.57,0,0,1,.7.11.59.59,0,0,0-.5,0l-21,12.13a1.51,1.51,0,0,0-.76,1.31V166a.51.51,0,0,1-.45.51,1.25,1.25,0,0,1-.46-.15l-.14-.07Z" fill="#f76195"/><path d="M144.08,144.88v1.56l10.5-6.06a.56.56,0,0,1,.83.49v16.51l-20,11.64a1.49,1.49,0,0,1-1.51,0l-.43-.27a1.33,1.33,0,0,1-.63-1.14V151.3a1.5,1.5,0,0,1,.75-1.31l9.68-5.59A.55.55,0,0,1,144.08,144.88Z" fill="#0ba19f"/><path d="M154.81,140.58l-10.5,6v-.32l10.27-5.93a.56.56,0,0,1,.73.17A.53.53,0,0,0,154.81,140.58Z" fill="#3ecfcd"/><path d="M133.57,150l9.68-5.59a.55.55,0,0,1,.74.17.54.54,0,0,0-.51,0l-9.68,5.59a1.5,1.5,0,0,0-.75,1.31v16.3a1.36,1.36,0,0,0,.36.92,1.35,1.35,0,0,1-.59-1.12V151.3A1.5,1.5,0,0,1,133.57,150Z" fill="#3ecfcd"/><polygon points="156.44 155.66 133.85 168.71 133.85 154.35 156.44 141.31 156.44 155.66" fill="#fff"/><path d="M156.27,156.93,135.35,169a1.44,1.44,0,0,1-1.41,0l-.14-.08.14.06a.52.52,0,0,0,.71-.49V157a1.51,1.51,0,0,1,.76-1.31l21-12.13a.57.57,0,0,1,.84.49v11.23A2,2,0,0,1,156.27,156.93Z" fill="#0ba19f"/><path d="M133.94,169a.52.52,0,0,0,.71-.49V157a1.51,1.51,0,0,1,.76-1.31l21-12.13a.56.56,0,0,1,.7.12.56.56,0,0,0-.5,0l-21,12.13a1.51,1.51,0,0,0-.76,1.31v11.56a.51.51,0,0,1-.45.52,1.25,1.25,0,0,1-.46-.15l-.14-.08Z" fill="#3ecfcd"/><polygon points="140.44 162.57 140.44 173.19 115.73 158.49 115.73 147.87 140.44 162.57" fill="#a8cff0"/><polygon points="148.53 165.54 147.08 166.37 115.73 147.87 115.73 146.12 148.53 165.54" fill="#d1ebff"/><polygon points="137.69 158.08 137.69 175.96 136.06 175.04 136.06 157.15 137.69 158.08" fill="#a8cff0"/><polygon points="137.67 158.08 137.67 175.96 167.18 158.76 167.18 140.89 137.67 158.08" fill="#3f92d1"/><polygon points="166.23 158.21 166.23 142.55 138.62 158.63 138.62 174.3 166.23 158.21" fill="#72b5e8"/><polygon points="167.18 140.89 137.67 158.08 136.06 157.15 165.61 139.95 167.18 140.89" fill="#d1ebff"/><polygon points="166.94 140.77 166.94 141.24 137.82 158.2 137.82 175.62 137.43 175.84 137.43 157.96 166.94 140.77" fill="#fff"/><polygon points="164.36 152.1 164.36 146.2 140.64 159.82 140.64 165.73 164.36 152.1" fill="#03336e"/><polygon points="163.68 146.59 163.68 151.78 140.64 165.02 140.64 165.73 164.36 152.1 164.36 146.2 163.68 146.59" fill="#001a46"/><polygon points="144.37 161.64 142.76 162.57 142.76 160.72 144.37 159.79 144.37 161.64" fill="#ffd70f"/><polygon points="147.4 159.9 145.79 160.83 145.79 158.98 147.4 158.05 147.4 159.9" fill="#ffd70f"/><polygon points="150.42 158.15 148.81 159.08 148.81 157.23 150.42 156.3 150.42 158.15" fill="#ffd70f"/><polygon points="153.45 156.41 151.84 157.33 151.84 155.49 153.45 154.56 153.45 156.41" fill="#eb4680"/><polygon points="156.47 154.66 154.86 155.59 154.86 153.74 156.47 152.81 156.47 154.66" fill="#eb4680"/><polygon points="159.49 152.91 157.88 153.84 157.88 152 159.49 151.06 159.49 152.91" fill="#eb4680"/><polygon points="162.52 151.17 160.91 152.1 160.91 150.25 162.52 149.32 162.52 151.17" fill="#0fbab8"/><polygon points="111.68 110.87 111.68 137.06 61.91 108.25 61.91 82.05 111.68 110.87" fill="#a8cff0"/><polygon points="111.66 110.87 111.66 137.06 145.53 117.32 145.53 91.15 111.66 110.87" fill="#72b5e8"/><polygon points="145.53 91.15 111.66 110.87 61.91 82.05 95.82 62.31 145.53 91.15" fill="#d1ebff"/><polygon points="111.67 98.61 111.67 109.77 63.72 82 63.72 70.83 111.67 98.61" fill="#2672ab"/><polygon points="111.65 98.61 111.65 109.77 143.73 91.07 143.73 79.93 111.65 98.61" fill="#084c94"/><polygon points="111.68 81.2 111.68 107.4 61.91 78.58 61.91 52.38 111.68 81.2" fill="#a8cff0"/><polygon points="111.66 81.2 111.66 107.4 145.53 87.65 145.53 61.48 111.66 81.2" fill="#72b5e8"/><polygon points="145.53 61.48 111.66 81.2 61.91 52.38 95.82 32.64 145.53 61.48" fill="#d1ebff"/><polygon points="145.53 61.48 111.66 81.2 61.91 52.38 111.69 80.47 145.53 61.48" fill="#fff"/><polygon points="113.85 83.84 113.85 101.72 143.36 84.52 143.36 66.65 113.85 83.84" fill="#d1ebff"/><polygon points="114.22 84.15 114.22 102.03 143.74 84.83 143.74 66.96 114.22 84.15" fill="#3f92d1"/><polygon points="142.78 84.28 142.78 68.62 115.17 84.7 115.17 100.37 142.78 84.28" fill="#72b5e8"/><polygon points="140.91 78.17 140.91 72.27 117.19 85.89 117.19 91.8 140.91 78.17" fill="#03336e"/><polygon points="140.23 72.66 140.23 77.79 117.19 91.03 117.19 91.8 140.91 78.17 140.91 72.27 140.23 72.66" fill="#001a46"/><polygon points="120.92 87.71 119.31 88.64 119.31 86.8 120.92 85.86 120.92 87.71" fill="#ffd70f"/><polygon points="123.95 85.97 122.34 86.9 122.34 85.05 123.95 84.12 123.95 85.97" fill="#eb4680"/><polygon points="126.97 84.22 125.36 85.15 125.36 83.3 126.97 82.37 126.97 84.22" fill="#eb4680"/><polygon points="130 82.47 128.39 83.4 128.39 81.56 130 80.63 130 82.47" fill="#eb4680"/><polygon points="133.02 80.73 131.41 81.66 131.41 79.81 133.02 78.88 133.02 80.73" fill="#0fbab8"/><polygon points="136.04 78.98 134.44 79.91 134.44 78.06 136.04 77.14 136.04 78.98" fill="#0fbab8"/><polygon points="139.07 77.24 137.46 78.17 137.46 76.32 139.07 75.39 139.07 77.24" fill="#0fbab8"/><polygon points="115.33 112.51 115.33 129.61 141.63 114.74 141.63 97.66 115.33 112.51" fill="#2672ab"/><path d="M115,112.31l27-15.26V115l-27,15.27Zm26.3-14-25.58,14.45V129l25.58-14.47Z" fill="#3f92d1"/><polygon points="151.13 110.54 151.13 124.66 122.97 108.79 135.49 101.73 151.13 110.54" fill="#a8cff0"/><polygon points="152.56 109.71 151.11 110.54 135.49 101.73 136.98 100.87 152.56 109.71" fill="#d1ebff"/><path d="M129.8,106.29v1.57l10.49-6.06a.56.56,0,0,1,.84.48v16.51l-20,11.64a1.46,1.46,0,0,1-1.52,0l-.42-.26a1.35,1.35,0,0,1-.64-1.14v-16.3a1.51,1.51,0,0,1,.76-1.31l9.68-5.59A.56.56,0,0,1,129.8,106.29Z" fill="#d62d69"/><path d="M140.52,102,130,108.05v-.32l10.26-5.93a.55.55,0,0,1,.74.17A.54.54,0,0,0,140.52,102Z" fill="#f76195"/><path d="M119.29,111.4l9.68-5.59a.56.56,0,0,1,.73.17.55.55,0,0,0-.5,0l-9.68,5.59a1.51,1.51,0,0,0-.76,1.31v16.3a1.35,1.35,0,0,0,.37.92,1.34,1.34,0,0,1-.6-1.11v-16.3A1.51,1.51,0,0,1,119.29,111.4Z" fill="#f76195"/><polygon points="142.16 117.08 119.56 130.12 119.56 115.77 142.16 102.72 142.16 117.08" fill="#fff"/><path d="M142,118.34l-20.91,12.08a1.46,1.46,0,0,1-1.42,0l-.13-.07.14,0a.52.52,0,0,0,.71-.49V118.37a1.5,1.5,0,0,1,.75-1.31l21-12.13a.55.55,0,0,1,.83.48v11.24A1.94,1.94,0,0,1,142,118.34Z" fill="#d62d69"/><path d="M119.66,130.42a.52.52,0,0,0,.71-.49V118.37a1.5,1.5,0,0,1,.75-1.31l21-12.13a.56.56,0,0,1,.69.11.57.57,0,0,0-.49,0l-21,12.13a1.52,1.52,0,0,0-.75,1.31v11.57a.52.52,0,0,1-.45.51,1.36,1.36,0,0,1-.47-.15l-.13-.07Z" fill="#f76195"/><path d="M134.28,109v1.56l10.5-6a.55.55,0,0,1,.83.48v16.51l-20,11.64a1.48,1.48,0,0,1-1.52,0l-.42-.27a1.32,1.32,0,0,1-.64-1.13v-16.3a1.51,1.51,0,0,1,.76-1.31l9.68-5.59A.55.55,0,0,1,134.28,109Z" fill="#0ba19f"/><path d="M145,104.67l-10.5,6.06v-.33l10.27-5.92a.54.54,0,0,1,.73.17A.52.52,0,0,0,145,104.67Z" fill="#3ecfcd"/><path d="M123.77,114.08l9.68-5.59a.54.54,0,0,1,.73.17.52.52,0,0,0-.5,0L124,114.27a1.51,1.51,0,0,0-.76,1.31v16.3a1.37,1.37,0,0,0,.37.92,1.35,1.35,0,0,1-.6-1.11v-16.3A1.51,1.51,0,0,1,123.77,114.08Z" fill="#3ecfcd"/><polygon points="146.64 119.75 124.04 132.8 124.04 118.44 146.64 105.4 146.64 119.75" fill="#fff"/><path d="M146.47,121,125.55,133.1a1.46,1.46,0,0,1-1.42,0L124,133l.14.06a.52.52,0,0,0,.71-.49V121a1.52,1.52,0,0,1,.75-1.31l21-12.12a.55.55,0,0,1,.83.48v11.23A2,2,0,0,1,146.47,121Z" fill="#0ba19f"/><path d="M124.14,133.1a.52.52,0,0,0,.71-.49V121a1.52,1.52,0,0,1,.75-1.31l21-12.12a.54.54,0,0,1,.69.11.53.53,0,0,0-.49,0l-21,12.13a1.51,1.51,0,0,0-.76,1.31v11.56a.52.52,0,0,1-.45.52,1.36,1.36,0,0,1-.47-.15L124,133Z" fill="#3ecfcd"/><polygon points="130.63 126.66 130.63 137.28 115.73 128.82 115.73 118.2 130.63 126.66" fill="#a8cff0"/><polygon points="138.73 129.63 137.28 130.46 115.73 118.2 115.73 116.46 138.73 129.63" fill="#d1ebff"/><polygon points="127.88 122.17 127.88 140.06 126.26 139.13 126.26 121.24 127.88 122.17" fill="#a8cff0"/><polygon points="127.87 122.17 127.87 140.06 157.38 122.85 157.38 104.98 127.87 122.17" fill="#3f92d1"/><polygon points="156.43 122.3 156.43 106.64 128.82 122.72 128.82 138.39 156.43 122.3" fill="#72b5e8"/><polygon points="157.38 104.98 127.87 122.17 126.26 121.24 155.81 104.04 157.38 104.98" fill="#d1ebff"/><polygon points="157.14 104.86 157.14 105.33 128.02 122.29 128.02 139.71 127.63 139.94 127.63 122.05 157.14 104.86" fill="#fff"/><polygon points="154.56 116.19 154.56 110.29 130.84 123.91 130.84 129.82 154.56 116.19" fill="#03336e"/><polygon points="153.87 110.68 153.87 115.88 130.84 129.11 130.84 129.82 154.56 116.19 154.56 110.29 153.87 110.68" fill="#001a46"/><polygon points="134.57 125.73 132.96 126.66 132.96 124.81 134.57 123.89 134.57 125.73" fill="#ffd70f"/><polygon points="137.59 123.99 135.99 124.92 135.99 123.07 137.59 122.14 137.59 123.99" fill="#ffd70f"/><polygon points="140.62 122.24 139.01 123.17 139.01 121.32 140.62 120.39 140.62 122.24" fill="#ffd70f"/><polygon points="143.64 120.5 142.03 121.42 142.03 119.58 143.64 118.65 143.64 120.5" fill="#eb4680"/><polygon points="146.67 118.75 145.06 119.68 145.06 117.83 146.67 116.9 146.67 118.75" fill="#eb4680"/><polygon points="149.69 117 148.08 117.93 148.08 116.09 149.69 115.16 149.69 117" fill="#eb4680"/><polygon points="152.72 115.26 151.1 116.19 151.1 114.34 152.72 113.41 152.72 115.26" fill="#0fbab8"/><polygon points="69.68 224.38 69.68 231.4 19.91 202.58 19.91 195.56 69.68 224.38" fill="#a8cff0"/><polygon points="69.66 224.38 69.66 231.4 103.53 211.65 103.53 204.66 69.66 224.38" fill="#72b5e8"/><polygon points="103.53 204.66 69.66 224.38 19.91 195.56 69.24 184.89 103.53 204.66" fill="#d1ebff"/><polygon points="69.67 212.12 69.67 223.28 21.72 195.51 21.72 184.35 69.67 212.12" fill="#2672ab"/><polygon points="69.65 212.12 69.65 223.28 101.73 204.59 101.73 193.44 69.65 212.12" fill="#084c94"/><polygon points="69.68 194.79 69.68 220.98 19.91 192.16 19.91 165.97 69.68 194.79" fill="#a8cff0"/><polygon points="69.66 194.79 69.66 220.98 103.53 201.24 103.53 175.06 69.66 194.79" fill="#72b5e8"/><polygon points="103.53 175.06 69.66 194.79 19.91 165.97 53.82 146.22 103.53 175.06" fill="#d1ebff"/><polygon points="69.67 182.53 69.67 193.69 21.72 165.91 21.72 154.75 69.67 182.53" fill="#2672ab"/><polygon points="69.65 182.53 69.65 193.69 101.73 174.99 101.73 163.85 69.65 182.53" fill="#084c94"/><polygon points="69.68 194.75 69.68 220.94 19.91 192.12 19.91 165.93 69.68 194.75" fill="#a8cff0"/><polygon points="69.66 194.75 69.66 220.94 103.53 201.19 103.53 175.02 69.66 194.75" fill="#72b5e8"/><polygon points="103.53 175.02 69.66 194.75 19.91 165.93 53.82 146.18 103.53 175.02" fill="#d1ebff"/><polygon points="69.67 182.48 69.67 193.65 21.72 165.87 21.72 154.71 69.67 182.48" fill="#2672ab"/><polygon points="69.65 182.48 69.65 193.65 101.73 174.95 101.73 163.81 69.65 182.48" fill="#084c94"/><polygon points="71.91 197.44 71.91 215.32 101.42 198.12 101.42 180.25 71.91 197.44" fill="#d1ebff"/><polygon points="72.22 197.69 72.22 215.57 101.73 198.37 101.73 180.5 72.22 197.69" fill="#3f92d1"/><polygon points="100.78 197.82 100.78 182.16 73.17 198.24 73.17 213.91 100.78 197.82" fill="#72b5e8"/><polygon points="98.91 191.71 98.91 185.81 75.19 199.43 75.19 205.34 98.91 191.71" fill="#03336e"/><polygon points="98.16 186.24 98.16 191.27 75.19 204.47 75.19 205.34 98.91 191.71 98.91 185.81 98.16 186.24" fill="#001a46"/><polygon points="78.92 201.25 77.31 202.18 77.31 200.34 78.92 199.41 78.92 201.25" fill="#ffd70f"/><polygon points="81.95 199.51 80.34 200.44 80.34 198.59 81.95 197.66 81.95 199.51" fill="#ffd70f"/><polygon points="84.97 197.76 83.36 198.69 83.36 196.84 84.97 195.91 84.97 197.76" fill="#ffd70f"/><polygon points="88 196.02 86.39 196.95 86.39 195.1 88 194.17 88 196.02" fill="#eb4680"/><polygon points="91.02 194.27 89.41 195.2 89.41 193.35 91.02 192.42 91.02 194.27" fill="#eb4680"/><polygon points="94.05 192.52 92.44 193.45 92.44 191.61 94.05 190.68 94.05 192.52" fill="#0fbab8"/><polygon points="97.07 190.78 95.46 191.71 95.46 189.86 97.07 188.93 97.07 190.78" fill="#0fbab8"/><polygon points="69.68 165.12 69.68 191.31 19.91 162.5 19.91 136.3 69.68 165.12" fill="#a8cff0"/><polygon points="69.66 165.12 69.66 191.31 103.53 171.57 103.53 145.4 69.66 165.12" fill="#72b5e8"/><polygon points="103.53 145.4 69.66 165.12 19.91 136.3 53.82 116.56 103.53 145.4" fill="#d1ebff"/><polygon points="69.67 152.86 69.67 164.02 21.72 136.25 21.72 125.08 69.67 152.86" fill="#2672ab"/><polygon points="69.65 152.86 69.65 164.02 101.73 145.32 101.73 134.18 69.65 152.86" fill="#084c94"/><polygon points="69.68 165.04 69.68 191.23 19.91 162.41 19.91 136.22 69.68 165.04" fill="#a8cff0"/><polygon points="69.66 165.04 69.66 191.23 103.53 171.49 103.53 145.31 69.66 165.04" fill="#72b5e8"/><polygon points="103.53 145.31 69.66 165.04 19.91 136.22 53.82 116.47 103.53 145.31" fill="#d1ebff"/><polygon points="69.67 152.78 69.67 163.94 21.72 136.16 21.72 125 69.67 152.78" fill="#2672ab"/><polygon points="69.65 152.78 69.65 163.94 101.73 145.24 101.73 134.1 69.65 152.78" fill="#084c94"/><polygon points="69.68 135.37 69.68 161.56 19.91 132.75 19.91 106.55 69.68 135.37" fill="#a8cff0"/><polygon points="69.66 135.37 69.66 161.56 103.53 141.82 103.53 115.65 69.66 135.37" fill="#72b5e8"/><polygon points="103.53 115.65 69.66 135.37 19.91 106.55 53.82 86.81 103.53 115.65" fill="#d1ebff"/><polygon points="69.67 123.11 69.67 134.27 21.72 106.5 21.72 95.33 69.67 123.11" fill="#2672ab"/><polygon points="69.65 123.11 69.65 134.27 101.73 115.57 101.73 104.43 69.65 123.11" fill="#084c94"/><polygon points="71.91 138.07 71.91 155.95 101.42 138.75 101.42 120.88 71.91 138.07" fill="#d1ebff"/><polygon points="72.22 138.32 72.22 156.2 101.73 139 101.73 121.13 72.22 138.32" fill="#3f92d1"/><polygon points="100.78 138.45 100.78 122.79 73.17 138.87 73.17 154.54 100.78 138.45" fill="#72b5e8"/><polygon points="98.91 132.33 98.91 126.43 75.19 140.05 75.19 145.97 98.91 132.33" fill="#03336e"/><polygon points="98.16 126.86 98.16 131.9 75.19 145.1 75.19 145.97 98.91 132.33 98.91 126.43 98.16 126.86" fill="#001a46"/><polygon points="78.92 141.88 77.31 142.81 77.31 140.96 78.92 140.03 78.92 141.88" fill="#ffd70f"/><polygon points="81.95 140.13 80.34 141.06 80.34 139.22 81.95 138.29 81.95 140.13" fill="#ffd70f"/><polygon points="84.97 138.39 83.36 139.32 83.36 137.47 84.97 136.54 84.97 138.39" fill="#ffd70f"/><polygon points="88 136.64 86.39 137.57 86.39 135.72 88 134.79 88 136.64" fill="#eb4680"/><polygon points="91.02 134.9 89.41 135.82 89.41 133.98 91.02 133.05 91.02 134.9" fill="#eb4680"/><polygon points="94.05 133.15 92.44 134.08 92.44 132.23 94.05 131.3 94.05 133.15" fill="#0fbab8"/><polygon points="97.07 131.4 95.46 132.33 95.46 130.49 97.07 129.56 97.07 131.4" fill="#0fbab8"/><polygon points="71.91 167.82 71.91 185.7 101.42 168.5 101.42 150.63 71.91 167.82" fill="#d1ebff"/><polygon points="72.22 168.07 72.22 185.95 101.73 168.75 101.73 150.88 72.22 168.07" fill="#3f92d1"/><polygon points="100.78 168.2 100.78 152.54 73.17 168.62 73.17 184.29 100.78 168.2" fill="#72b5e8"/><polygon points="98.91 162.08 98.91 156.18 75.19 169.8 75.19 175.72 98.91 162.08" fill="#03336e"/><polygon points="98.16 156.61 98.16 161.65 75.19 174.85 75.19 175.72 98.91 162.08 98.91 156.18 98.16 156.61" fill="#001a46"/><polygon points="78.92 171.63 77.31 172.56 77.31 170.71 78.92 169.78 78.92 171.63" fill="#ffd70f"/><polygon points="81.95 169.88 80.34 170.81 80.34 168.97 81.95 168.04 81.95 169.88" fill="#ffd70f"/><polygon points="84.97 168.14 83.36 169.07 83.36 167.22 84.97 166.29 84.97 168.14" fill="#ffd70f"/><polygon points="88 166.39 86.39 167.32 86.39 165.47 88 164.54 88 166.39" fill="#eb4680"/><polygon points="91.02 164.65 89.41 165.57 89.41 163.73 91.02 162.8 91.02 164.65" fill="#eb4680"/><polygon points="94.05 162.9 92.44 163.83 92.44 161.98 94.05 161.05 94.05 162.9" fill="#0fbab8"/><polygon points="97.07 161.15 95.46 162.08 95.46 160.24 97.07 159.31 97.07 161.15" fill="#0fbab8"/><polygon points="69.68 105.7 69.68 131.9 19.91 103.08 19.91 76.88 69.68 105.7" fill="#a8cff0"/><polygon points="69.66 105.7 69.66 131.9 103.53 112.15 103.53 85.98 69.66 105.7" fill="#72b5e8"/><polygon points="103.53 85.98 69.66 105.7 19.91 76.88 53.82 57.14 103.53 85.98" fill="#d1ebff"/><polygon points="103.53 85.98 69.66 105.7 19.91 76.88 69.69 104.97 103.53 85.98" fill="#fff"/><polygon points="71.85 108.34 71.85 126.22 101.36 109.02 101.36 91.15 71.85 108.34" fill="#d1ebff"/><polygon points="72.22 108.65 72.22 126.53 101.73 109.33 101.73 91.46 72.22 108.65" fill="#3f92d1"/><polygon points="100.78 108.78 100.78 93.12 73.17 109.2 73.17 124.87 100.78 108.78" fill="#72b5e8"/><polygon points="98.91 102.67 98.91 96.77 75.19 110.39 75.19 116.3 98.91 102.67" fill="#03336e"/><polygon points="98.23 97.16 98.23 102.29 75.19 115.53 75.19 116.3 98.91 102.67 98.91 96.77 98.23 97.16" fill="#001a46"/><polygon points="78.92 112.21 77.31 113.14 77.31 111.3 78.92 110.36 78.92 112.21" fill="#ffd70f"/><polygon points="81.95 110.47 80.34 111.4 80.34 109.55 81.95 108.62 81.95 110.47" fill="#eb4680"/><polygon points="84.97 108.72 83.36 109.65 83.36 107.8 84.97 106.87 84.97 108.72" fill="#eb4680"/><polygon points="88 106.97 86.39 107.9 86.39 106.06 88 105.13 88 106.97" fill="#eb4680"/><polygon points="91.02 105.23 89.41 106.16 89.41 104.31 91.02 103.38 91.02 105.23" fill="#0fbab8"/><polygon points="94.05 103.48 92.44 104.41 92.44 102.56 94.05 101.64 94.05 103.48" fill="#0fbab8"/><polygon points="97.07 101.74 95.46 102.67 95.46 100.82 97.07 99.89 97.07 101.74" fill="#0fbab8"/><path d="M216.32,239.87a.5.5,0,0,1-.25-.93l23.37-13.25a.51.51,0,0,1,.69.18.52.52,0,0,1-.19.69l-23.37,13.25A.54.54,0,0,1,216.32,239.87Z" fill="#92b4d1"/><path d="M175,263.38l-26.8-15.69A.51.51,0,0,1,148,247a.51.51,0,0,1,.69-.17l26.3,15.4,23.85-13.52a.5.5,0,0,1,.49.87Z" fill="#92b4d1"/><path d="M119,230.49a.45.45,0,0,1-.25-.07l-18-10.52a.5.5,0,1,1,.51-.86l18,10.52a.5.5,0,0,1-.25.93Z" fill="#92b4d1"/><path d="M221.21,261.5a6.17,6.17,0,0,1-3-.7L177,237a2.36,2.36,0,0,1-1.34-2,3.09,3.09,0,0,1,1.8-2.51l9.94-5.72a7.82,7.82,0,0,1,6.84-.26l41.16,23.77a2.37,2.37,0,0,1,1.35,2,3.09,3.09,0,0,1-1.8,2.5l-10,5.72A7.91,7.91,0,0,1,221.21,261.5Zm-29.93-34.67a6.83,6.83,0,0,0-3.34.83L178,233.38c-.83.48-1.3,1.07-1.3,1.64a1.44,1.44,0,0,0,.84,1.15l41.16,23.77a6.8,6.8,0,0,0,5.84-.27l10-5.71c.82-.48,1.3-1.08,1.3-1.64a1.45,1.45,0,0,0-.85-1.16L193.78,227.4A5.05,5.05,0,0,0,191.28,226.83Z" fill="#92b4d1"/><path d="M131.32,252.89c-11.63,0-21.09-5.6-21.09-12.48s9.46-12.49,21.09-12.49,21.09,5.6,21.09,12.49S143,252.89,131.32,252.89Zm0-24c-11.08,0-20.09,5.15-20.09,11.49s9,11.48,20.09,11.48,20.09-5.15,20.09-11.48S142.4,228.92,131.32,228.92Z" fill="#92b4d1"/><polygon points="191.56 211.61 182.47 216.87 191.57 222.12 200.66 216.86 191.56 211.61" fill="#ffde17"/><polygon points="182.47 236.53 191.56 241.78 191.56 222.12 182.47 216.86 182.47 236.53" fill="#ffd70f"/><polygon points="191.56 241.78 200.66 236.53 200.66 216.86 191.56 222.12 191.56 241.78" fill="#fc0"/><polygon points="191.56 221.62 182.47 216.87 191.57 222.12 200.66 216.86 191.56 221.62" fill="#fff"/><polygon points="206.53 204.55 197.44 209.81 206.53 215.06 215.62 209.8 206.53 204.55" fill="#f76195"/><polygon points="197.44 244.5 206.53 249.75 206.53 215.05 197.44 209.8 197.44 244.5" fill="#eb4680"/><polygon points="206.53 249.75 215.62 244.5 215.62 209.8 206.53 215.05 206.53 249.75" fill="#d62d69"/><polygon points="221.48 199.08 212.39 204.34 221.48 209.59 230.57 204.33 221.48 199.08" fill="#3ecfcd"/><polygon points="206.53 214.56 197.44 209.81 206.53 215.06 215.62 209.8 206.53 214.56" fill="#fff"/><polygon points="221.48 209.09 212.39 204.34 221.48 209.59 230.57 204.33 221.48 209.09" fill="#fff"/><polygon points="212.38 252.71 221.47 257.96 221.47 209.58 212.38 204.33 212.38 252.71" fill="#0fbab8"/><polygon points="221.47 257.96 230.57 252.71 230.57 204.33 221.47 209.58 221.47 257.96" fill="#0ba19f"/><path d="M131.29,226.2l-17.57,0c0-5.6,7.81-10.13,17.51-10.11s17.59,4.57,17.62,10.17q0,4.2-5.1,7.17Z" fill="#3ecfcd"/><polygon points="113.72 226.17 113.72 239.37 131.28 239.37 131.28 226.2 113.72 226.17" fill="#0ba19f"/><polygon points="143.75 233.4 143.75 246.6 131.28 239.37 131.28 226.2 143.75 233.4" fill="#0fbab8"/><path d="M143.75,233.4v13.2c3.42-2,5.12-4.36,5.1-7.17v-13.2Q148.88,230.43,143.75,233.4Z" fill="#0ba19f"/><path d="M148.75,225.31a5.55,5.55,0,0,1,.06.82q0,4.2-5.1,7.16l-12.47-7.19-17.51,0a2.72,2.72,0,0,0,0,.28l17.57,0,12.46,7.19q5.13-3,5.1-7.16A5.67,5.67,0,0,0,148.75,225.31Z" fill="#fff"/><path d="M135.79,243.68l-4.5-9.08.05,15a24.38,24.38,0,0,0,12.41-3v-4.81Z" fill="#d62d69"/><path d="M131.29,234.59l12.46,7.2a24.49,24.49,0,0,1-12.41,3Z" fill="#f76195"/><path d="M131.34,244.65l-.05-9.89h0l.05,10.14a24.28,24.28,0,0,0,12.41-3l-.23-.12A24.43,24.43,0,0,1,131.34,244.65Z" fill="#fff" opacity="0.7"/><path d="M131.31,241l0-3.63H125l-11.27-6.51v8.5c0,5.6,7.92,10.16,17.62,10.18V241Z" fill="#ffd70f"/><path d="M131.29,230.9l.05,10.14c-9.7,0-17.59-4.57-17.62-10.17h0Z" fill="#ffde17"/><path d="M131.29,231.07h-.09l.06,9.85c-8.68,0-15.9-3.66-17.35-8.43,1.24,4.91,8.58,8.71,17.43,8.72Z" fill="#fff" opacity="0.7"/><g mask="url(#a72a833b-6ed2-411e-b10e-b398b068b2fd)"><path d="M338.17,141.38a3.94,3.94,0,0,0,1.77,3.06c1,.56,1.78.11,1.78-1a3.9,3.9,0,0,0-1.78-3.06C339,139.8,338.17,140.26,338.17,141.38Z" fill="#0fbab8"/><path d="M322.5,135.55a3.89,3.89,0,0,0,1.78,3c1,.57,1.77.12,1.77-1a3.88,3.88,0,0,0-1.77-3.05C323.3,134,322.5,134.42,322.5,135.55Z" fill="#0fbab8"/><path d="M332.3,133.25a3.89,3.89,0,0,0,1.77,3.06c1,.57,1.77.11,1.77-1a3.92,3.92,0,0,0-1.77-3.06C333.09,131.68,332.3,132.13,332.3,133.25Z" fill="#0fbab8"/><path d="M324.42,129a3.91,3.91,0,0,0,1.77,3.06c1,.57,1.78.11,1.78-1a3.93,3.93,0,0,0-1.78-3.06C325.22,127.43,324.42,127.88,324.42,129Z" fill="#0fbab8"/><path d="M272.67,70.63a3.94,3.94,0,0,0,1.77,3.06c1,.56,1.78.11,1.78-1a3.9,3.9,0,0,0-1.78-3.06C273.47,69.05,272.67,69.51,272.67,70.63Z" fill="#0fbab8"/><path d="M287.42,102.25a3.91,3.91,0,0,0,1.77,3.06c1,.57,1.78.11,1.78-1a3.93,3.93,0,0,0-1.78-3.06C288.22,100.68,287.42,101.13,287.42,102.25Z" fill="#0fbab8"/><path d="M330.88,118.09a3.88,3.88,0,0,0,1.77,3c1,.57,1.78.12,1.78-1a3.89,3.89,0,0,0-1.78-3C331.67,116.51,330.88,117,330.88,118.09Z" fill="#0fbab8"/><path d="M346.05,82A3.92,3.92,0,0,0,347.82,85c1,.56,1.77.11,1.77-1A3.89,3.89,0,0,0,347.82,81C346.84,80.39,346.05,80.85,346.05,82Z" fill="#0fbab8"/><path d="M308.46,93.09a3.89,3.89,0,0,0,1.78,3c1,.57,1.77.12,1.77-1a3.91,3.91,0,0,0-1.77-3C309.26,91.51,308.46,92,308.46,93.09Z" fill="#0fbab8"/><path d="M343.3,153.75a3.89,3.89,0,0,0,1.77,3.06c1,.57,1.77.11,1.77-1a3.92,3.92,0,0,0-1.77-3.06C344.09,152.18,343.3,152.63,343.3,153.75Z" fill="#0fbab8"/><path d="M315.55,119.25a3.89,3.89,0,0,0,1.77,3.06c1,.57,1.77.11,1.77-1a3.92,3.92,0,0,0-1.77-3.06C316.34,117.68,315.55,118.13,315.55,119.25Z" fill="#0fbab8"/><path d="M307.05,118.25a3.89,3.89,0,0,0,1.77,3.06c1,.57,1.77.11,1.77-1a3.92,3.92,0,0,0-1.77-3.06C307.84,116.68,307.05,117.13,307.05,118.25Z" fill="#0fbab8"/><path d="M305.42,126.13a3.94,3.94,0,0,0,1.77,3.06c1,.56,1.78.11,1.78-1a3.9,3.9,0,0,0-1.78-3.06C306.22,124.55,305.42,125,305.42,126.13Z" fill="#0fbab8"/><path d="M306.8,98.88a3.92,3.92,0,0,0,1.77,3.06c1,.56,1.77.11,1.77-1a3.89,3.89,0,0,0-1.77-3.06C307.59,97.3,306.8,97.76,306.8,98.88Z" fill="#0fbab8"/><path d="M294.8,88.09a3.92,3.92,0,0,0,1.77,3.06c1,.56,1.77.11,1.77-1a3.88,3.88,0,0,0-1.77-3C295.59,86.51,294.8,87,294.8,88.09Z" fill="#0fbab8"/><path d="M292.63,77.09a3.92,3.92,0,0,0,1.77,3.06c1,.56,1.78.11,1.78-1a3.89,3.89,0,0,0-1.78-3C293.42,75.51,292.63,76,292.63,77.09Z" fill="#0fbab8"/><path d="M295.13,99.25a3.89,3.89,0,0,0,1.77,3.06c1,.57,1.78.11,1.78-1a3.93,3.93,0,0,0-1.78-3.06C295.92,97.68,295.13,98.13,295.13,99.25Z" fill="#0fbab8"/><path d="M294.3,106.92a3.92,3.92,0,0,0,1.77,3.06c1,.56,1.77.11,1.77-1a3.9,3.9,0,0,0-1.77-3.06C295.09,105.34,294.3,105.8,294.3,106.92Z" fill="#0fbab8"/><path d="M339.8,95.22a3.92,3.92,0,0,0,1.77,3.06c1,.56,1.77.11,1.77-1a3.89,3.89,0,0,0-1.77-3.06C340.59,93.64,339.8,94.1,339.8,95.22Z" fill="#0fbab8"/><path d="M266.55,80.63a3.92,3.92,0,0,0,1.77,3.06c1,.56,1.77.11,1.77-1a3.89,3.89,0,0,0-1.77-3.06C267.34,79.05,266.55,79.51,266.55,80.63Z" fill="#0fbab8"/><path d="M341.8,117.09a3.88,3.88,0,0,0,1.77,3c1,.57,1.77.12,1.77-1a3.88,3.88,0,0,0-1.77-3C342.59,115.51,341.8,116,341.8,117.09Z" fill="#0fbab8"/><path d="M317,127.42a3.93,3.93,0,0,0,1.78,3.06c1,.56,1.77.11,1.77-1a3.93,3.93,0,0,0-1.77-3.06C317.76,125.84,317,126.3,317,127.42Z" fill="#0fbab8"/><path d="M323.63,119.25a3.89,3.89,0,0,0,1.77,3.06c1,.57,1.78.11,1.78-1a3.93,3.93,0,0,0-1.78-3.06C324.42,117.68,323.63,118.13,323.63,119.25Z" fill="#0fbab8"/><path d="M323.3,107.22a3.92,3.92,0,0,0,1.77,3.06c1,.56,1.77.11,1.77-1a3.89,3.89,0,0,0-1.77-3.06C324.09,105.64,323.3,106.1,323.3,107.22Z" fill="#0fbab8"/><path d="M331.3,144.09a3.88,3.88,0,0,0,1.77,3c1,.57,1.77.12,1.77-1a3.88,3.88,0,0,0-1.77-3C332.09,142.51,331.3,143,331.3,144.09Z" fill="#0fbab8"/><path d="M314.42,92.75a3.91,3.91,0,0,0,1.77,3.06c1,.57,1.78.11,1.78-1a3.93,3.93,0,0,0-1.78-3.06C315.22,91.18,314.42,91.63,314.42,92.75Z" fill="#0fbab8"/><path d="M285.46,94.59a3.89,3.89,0,0,0,1.78,3c1,.57,1.77.12,1.77-1a3.91,3.91,0,0,0-1.77-3C286.26,93,285.46,93.46,285.46,94.59Z" fill="#0fbab8"/><path d="M279.55,86.5a3.89,3.89,0,0,0,1.77,3.06c1,.57,1.77.11,1.77-1a3.92,3.92,0,0,0-1.77-3.06C280.34,84.93,279.55,85.38,279.55,86.5Z" fill="#0fbab8"/><path d="M273.88,79.5a3.89,3.89,0,0,0,1.77,3.06c1,.57,1.78.11,1.78-1a3.93,3.93,0,0,0-1.78-3.06C274.67,77.93,273.88,78.38,273.88,79.5Z" fill="#0fbab8"/><path d="M300.46,113.59a3.89,3.89,0,0,0,1.78,3c1,.57,1.77.12,1.77-1a3.91,3.91,0,0,0-1.77-3C301.26,112,300.46,112.46,300.46,113.59Z" fill="#0fbab8"/><path d="M283.3,85.75a3.89,3.89,0,0,0,1.77,3.06c1,.57,1.77.11,1.77-1a3.92,3.92,0,0,0-1.77-3.06C284.09,84.18,283.3,84.63,283.3,85.75Z" fill="#0fbab8"/><path d="M300.55,72.75a3.89,3.89,0,0,0,1.77,3.06c1,.57,1.77.11,1.77-1a3.92,3.92,0,0,0-1.77-3.06C301.34,71.18,300.55,71.63,300.55,72.75Z" fill="#0fbab8"/><path d="M291.3,59.47a3.92,3.92,0,0,0,1.77,3.06c1,.56,1.77.11,1.77-1a3.89,3.89,0,0,0-1.77-3.06C292.09,57.89,291.3,58.35,291.3,59.47Z" fill="#0fbab8"/><path d="M303.13,91.25a3.89,3.89,0,0,0,1.77,3.06c1,.57,1.78.11,1.78-1a3.93,3.93,0,0,0-1.78-3.06C303.92,89.68,303.13,90.13,303.13,91.25Z" fill="#0fbab8"/><path d="M289.42,90.13a3.94,3.94,0,0,0,1.77,3.06c1,.56,1.78.11,1.78-1a3.9,3.9,0,0,0-1.78-3.06C290.22,88.55,289.42,89,289.42,90.13Z" fill="#0fbab8"/><path d="M281.71,107.8a3.9,3.9,0,0,0,1.78,3.06c1,.57,1.77.11,1.77-1a3.94,3.94,0,0,0-1.77-3.06C282.51,106.23,281.71,106.68,281.71,107.8Z" fill="#0fbab8"/><path d="M311.3,73.22a3.92,3.92,0,0,0,1.77,3.06c1,.56,1.77.11,1.77-1a3.89,3.89,0,0,0-1.77-3.06C312.09,71.64,311.3,72.1,311.3,73.22Z" fill="#0fbab8"/><path d="M329.71,81.59a3.89,3.89,0,0,0,1.78,3c1,.57,1.77.12,1.77-1a3.91,3.91,0,0,0-1.77-3C330.51,80,329.71,80.46,329.71,81.59Z" fill="#0fbab8"/><path d="M311.3,104.22a3.92,3.92,0,0,0,1.77,3.06c1,.56,1.77.11,1.77-1a3.89,3.89,0,0,0-1.77-3.06C312.09,102.64,311.3,103.1,311.3,104.22Z" fill="#0fbab8"/><path d="M304,105.59a3.89,3.89,0,0,0,1.78,3c1,.57,1.77.12,1.77-1a3.91,3.91,0,0,0-1.77-3C304.76,104,304,104.46,304,105.59Z" fill="#0fbab8"/><path d="M319.8,87.42a3.92,3.92,0,0,0,1.77,3.06c1,.56,1.77.11,1.77-1a3.9,3.9,0,0,0-1.77-3.06C320.59,85.84,319.8,86.3,319.8,87.42Z" fill="#0fbab8"/><path d="M283.67,68.63a3.94,3.94,0,0,0,1.77,3.06c1,.56,1.78.11,1.78-1a3.9,3.9,0,0,0-1.78-3.06C284.47,67.05,283.67,67.51,283.67,68.63Z" fill="#0fbab8"/><path d="M287.92,80.75a3.91,3.91,0,0,0,1.77,3.06c1,.57,1.78.11,1.78-1a3.93,3.93,0,0,0-1.78-3.06C288.72,79.18,287.92,79.63,287.92,80.75Z" fill="#0fbab8"/><path d="M254.8,78.19a3.88,3.88,0,0,0,1.77,3c1,.57,1.77.12,1.77-1a3.88,3.88,0,0,0-1.77-3C255.59,76.61,254.8,77.06,254.8,78.19Z" fill="#0fbab8"/><path d="M293.92,115.38a3.94,3.94,0,0,0,1.77,3.06c1,.56,1.78.11,1.78-1a3.9,3.9,0,0,0-1.78-3.06C294.72,113.8,293.92,114.26,293.92,115.38Z" fill="#0fbab8"/><path d="M315.8,109.5a3.89,3.89,0,0,0,1.77,3.06c1,.57,1.77.11,1.77-1a3.92,3.92,0,0,0-1.77-3.06C316.59,107.93,315.8,108.38,315.8,109.5Z" fill="#0fbab8"/><path d="M329.3,101.84a3.88,3.88,0,0,0,1.77,3c1,.57,1.77.12,1.77-1a3.88,3.88,0,0,0-1.77-3C330.09,100.26,329.3,100.71,329.3,101.84Z" fill="#0fbab8"/><path d="M298.92,94.38a3.94,3.94,0,0,0,1.77,3.06c1,.56,1.78.11,1.78-1a3.9,3.9,0,0,0-1.78-3.06C299.72,92.8,298.92,93.26,298.92,94.38Z" fill="#0fbab8"/><path d="M294.05,69.88a3.92,3.92,0,0,0,1.77,3.06c1,.56,1.77.11,1.77-1a3.89,3.89,0,0,0-1.77-3.06C294.84,68.3,294.05,68.76,294.05,69.88Z" fill="#0fbab8"/><path d="M277.17,91.5a3.91,3.91,0,0,0,1.77,3.06c1,.57,1.78.11,1.78-1a3.93,3.93,0,0,0-1.78-3.06C278,89.93,277.17,90.38,277.17,91.5Z" fill="#0fbab8"/><path d="M258.67,66.25a3.91,3.91,0,0,0,1.77,3.06c1,.57,1.78.11,1.78-1a3.93,3.93,0,0,0-1.78-3.06C259.47,64.68,258.67,65.13,258.67,66.25Z" fill="#0fbab8"/><path d="M274.55,100.88a3.92,3.92,0,0,0,1.77,3.06c1,.56,1.77.11,1.77-1a3.89,3.89,0,0,0-1.77-3.06C275.34,99.3,274.55,99.76,274.55,100.88Z" fill="#0fbab8"/><path d="M321.3,100a3.92,3.92,0,0,0,1.77,3.06c1,.56,1.77.11,1.77-1A3.89,3.89,0,0,0,323.07,99C322.09,98.39,321.3,98.85,321.3,100Z" fill="#0fbab8"/><path d="M306.67,110.5a3.91,3.91,0,0,0,1.77,3.06c1,.57,1.78.11,1.78-1a3.93,3.93,0,0,0-1.78-3.06C307.47,108.93,306.67,109.38,306.67,110.5Z" fill="#0fbab8"/><path d="M307.92,83.5a3.91,3.91,0,0,0,1.77,3.06c1,.57,1.78.11,1.78-1a3.93,3.93,0,0,0-1.78-3.06C308.72,81.93,307.92,82.38,307.92,83.5Z" fill="#0fbab8"/><path d="M298.8,85a3.89,3.89,0,0,0,1.77,3.06c1,.57,1.77.11,1.77-1A3.92,3.92,0,0,0,300.57,84C299.59,83.43,298.8,83.88,298.8,85Z" fill="#0fbab8"/><path d="M279.67,79a3.91,3.91,0,0,0,1.77,3.06c1,.57,1.78.11,1.78-1A3.93,3.93,0,0,0,281.44,78C280.47,77.43,279.67,77.88,279.67,79Z" fill="#0fbab8"/><path d="M267,91.5a3.9,3.9,0,0,0,1.78,3.06c1,.57,1.77.11,1.77-1a3.94,3.94,0,0,0-1.77-3.06C267.76,89.93,267,90.38,267,91.5Z" fill="#0fbab8"/><path d="M273.3,61.5a3.89,3.89,0,0,0,1.77,3.06c1,.57,1.77.11,1.77-1a3.92,3.92,0,0,0-1.77-3.06C274.09,59.93,273.3,60.38,273.3,61.5Z" fill="#0fbab8"/></g><path d="M363.11,213l-73.43-42.42c-2.85-1.64-5.15-6.05-5.15-9.84V103.1c0-3.79,2.3-5.53,5.15-3.89l73.43,42.42c2.84,1.65,5.15,6.05,5.15,9.84v57.61C368.26,212.87,366,214.61,363.11,213Z" fill="#3f92d1"/><path d="M364.57,140.86,291.14,98.44a3.48,3.48,0,0,0-3-.44c-.1,0-1.54.8-1.64.86h0a3.37,3.37,0,0,1,3.21.35l73.43,42.42c2.84,1.65,5.15,6.05,5.15,9.84v57.61c0,2.36-.9,3.93-2.27,4.38a.93.93,0,0,0,.46-.16c.06,0,1.62-.91,1.68-1,1-.68,1.59-2.09,1.59-4V150.69C369.72,146.9,367.41,142.5,364.57,140.86Z" fill="#2672ab"/><path d="M363.36,141.51,289.92,99.09a3.43,3.43,0,0,0-3.1-.4,3.86,3.86,0,0,1,2.49.58l73.43,42.43c2.84,1.64,5.15,6,5.15,9.83v57.61c0,2.24-.81,3.75-2.05,4.29,1.59-.26,2.66-1.89,2.66-4.48v-57.6C368.5,147.56,366.2,143.15,363.36,141.51Z" fill="#3f92d1" style="mix-blend-mode:screen"/><path d="M286.32,103.92v57a9,9,0,0,0,3.8,7.52l74.53,43.06.13.07a1,1,0,0,0,1.51-.88V151.44a13,13,0,0,0-.09-1.4Z" fill="#03336e"/><path d="M365.6,211.33l-.13-.07-74.53-43a9,9,0,0,1-3.8-7.52v-56.3l-.82-.47v57a9,9,0,0,0,3.8,7.52l74.53,43.06.13.07a1,1,0,0,0,1.16-.12A.87.87,0,0,1,365.6,211.33Z" fill="#a8cff0"/><polygon points="322.91 137.64 319.02 135.4 319.02 179.23 322.91 181.47 322.91 137.64" fill="#ffd70f"/><polygon points="328.51 135.44 324.62 133.2 324.62 182.41 328.51 184.66 328.51 135.44" fill="#ffd70f"/><polygon points="334.27 145.35 330.38 143.1 330.38 185.71 334.27 187.96 334.27 145.35" fill="#ffd70f"/><polygon points="307.48 148.43 307.48 172.45 311.37 174.69 311.37 150.68 307.48 148.43" fill="#ffd70f"/><polygon points="317.14 141.76 313.25 139.51 313.25 175.74 317.14 177.99 317.14 141.76" fill="#ffd70f"/><polygon points="339.93 157.51 336.04 155.27 336.04 189 339.93 191.25 339.93 157.51" fill="#ffd70f"/><polygon points="345.48 163.6 341.59 161.35 341.59 192.24 345.48 194.49 345.48 163.6" fill="#ffd70f"/><polygon points="305.61 144.27 301.72 142.03 301.72 168.97 305.61 171.22 305.61 144.27" fill="#ffd70f"/><polygon points="290.18 145.86 290.18 162.19 294.07 164.43 294.07 148.11 290.18 145.86" fill="#ffd70f"/><polygon points="299.84 139.46 295.95 137.21 295.95 165.48 299.84 167.73 299.84 139.46" fill="#ffd70f"/><polygon points="322.91 154.85 319.02 152.6 319.02 179.23 322.91 181.47 322.91 154.85" fill="#eb4680"/><polygon points="328.51 142.74 324.62 140.5 324.62 182.41 328.51 184.66 328.51 142.74" fill="#eb4680"/><polygon points="334.27 153.13 330.38 150.88 330.38 185.71 334.27 187.96 334.27 153.13" fill="#eb4680"/><polygon points="307.48 154.27 307.48 172.45 311.37 174.69 311.37 156.51 307.48 154.27" fill="#eb4680"/><polygon points="317.14 153.56 313.25 151.31 313.25 175.74 317.14 177.99 317.14 153.56" fill="#eb4680"/><polygon points="305.61 146.47 301.72 144.23 301.72 168.97 305.61 171.22 305.61 146.47" fill="#eb4680"/><polygon points="290.18 157.46 290.18 162.19 294.07 164.43 294.07 159.71 290.18 157.46" fill="#eb4680"/><polygon points="299.84 157.47 295.95 155.22 295.95 165.48 299.84 167.73 299.84 157.47" fill="#eb4680"/><polygon points="339.93 163.79 336.04 161.55 336.04 189 339.93 191.25 339.93 163.79" fill="#eb4680"/><polygon points="345.48 174.85 341.59 172.6 341.59 192.24 345.48 194.49 345.48 174.85" fill="#eb4680"/><polygon points="350.95 161.21 347.06 158.97 347.06 195.38 350.95 197.62 350.95 161.21" fill="#ffd70f"/><polygon points="356.55 152.53 352.66 150.28 352.66 198.56 356.55 200.81 356.55 152.53" fill="#ffd70f"/><polygon points="362.32 161.49 358.43 159.25 358.43 201.86 362.32 204.1 362.32 161.49" fill="#ffd70f"/><polygon points="350.95 171 347.06 168.75 347.06 195.38 350.95 197.62 350.95 171" fill="#eb4680"/><polygon points="356.55 158.89 352.66 156.64 352.66 198.56 356.55 200.81 356.55 158.89" fill="#eb4680"/><polygon points="362.32 169.27 358.43 167.03 358.43 201.86 362.32 204.1 362.32 169.27" fill="#eb4680"/><polygon points="362.32 169.27 358.43 167.03 358.43 201.86 362.32 204.1 362.32 169.27" fill="#eb4680"/><path d="M298.57,193.11l-73.44-42.43c-2.84-1.64-5.14-6-5.14-9.83V83.24c0-3.79,2.3-5.53,5.14-3.89l73.44,42.42c2.84,1.64,5.15,6,5.15,9.84v57.61C303.72,193,301.41,194.75,298.57,193.11Z" fill="#3f92d1"/><path d="M300,121,226.59,78.58a3.5,3.5,0,0,0-3-.45l-1.64.86h0a3.35,3.35,0,0,1,3.2.35l73.44,42.42c2.84,1.64,5.15,6,5.15,9.84v57.61c0,2.36-.9,3.93-2.27,4.37a.78.78,0,0,0,.45-.15l1.69-1c1-.68,1.59-2.09,1.59-4V130.83C305.18,127,302.87,122.64,300,121Z" fill="#2672ab"/><path d="M298.82,121.65,225.38,79.23a3.4,3.4,0,0,0-3.1-.4,3.77,3.77,0,0,1,2.48.58l73.44,42.42c2.84,1.65,5.15,6,5.15,9.84v57.61c0,2.23-.81,3.75-2.05,4.28,1.59-.25,2.66-1.88,2.66-4.47V131.48C304,127.69,301.66,123.29,298.82,121.65Z" fill="#3f92d1" style="mix-blend-mode:screen"/><path d="M221.78,84.06v57a9,9,0,0,0,3.8,7.52l74.53,43,.13.08a1,1,0,0,0,1.51-.88V131.58a13,13,0,0,0-.09-1.4Z" fill="#03336e"/><path d="M301.05,191.47l-.12-.07L226.4,148.35a9,9,0,0,1-3.8-7.52V84.53l-.82-.47v57a9,9,0,0,0,3.8,7.52l74.53,43,.13.08a1,1,0,0,0,1.16-.12A1,1,0,0,1,301.05,191.47Z" fill="#a8cff0"/><path d="M300,168a1,1,0,0,1-.91-.58c-1.86-4-3.63-7.78-6.67-9.58a18.61,18.61,0,0,0-7.63-2.65,8.78,8.78,0,0,1-5.69-2.5c-.16-.16-.3-.29-.44-.41-1.19-1.09-1.63-1.66-2-5.33-.09-.86-.17-1.74-.26-2.63-.57-6.18-1.12-12-5.74-13-4-.81-5-3.67-6.17-7a38.07,38.07,0,0,0-1.54-3.94c-2-4.27-4.83-7.9-7-9-3.17-1.61-7.18.9-8.93,4.26s-4,7.65-8.14,8.15c-6.62.79-9.46-3.07-11.76-6.16-1.23-1.66-2.29-3.09-3.65-3.42a1,1,0,0,1,.47-1.94c2.07.5,3.39,2.28,4.79,4.17,2.19,3,4.45,6,9.91,5.36,3.1-.37,5-3.94,6.6-7.09,2.19-4.19,7.26-7.34,11.61-5.11,3.18,1.62,6.27,6.38,8,10a40.89,40.89,0,0,1,1.62,4.13c1.11,3.18,1.78,5.11,4.68,5.69,6.08,1.24,6.72,8.1,7.33,14.75.09.87.17,1.74.26,2.6.34,3.1.58,3.33,1.39,4.06.15.13.3.28.48.45,1.57,1.52,2.7,1.68,4.58,2a20.31,20.31,0,0,1,8.37,2.91c3.58,2.11,5.46,6.17,7.46,10.46a1,1,0,0,1-.48,1.32A.92.92,0,0,1,300,168Z" fill="#0fbab8"/><path d="M278.92,176.61a.4.4,0,0,1-.4-.4v-1a.4.4,0,1,1,.8,0v1A.4.4,0,0,1,278.92,176.61Zm0-3a.4.4,0,0,1-.4-.4v-1a.4.4,0,1,1,.8,0v1A.4.4,0,0,1,278.92,173.61Zm0-3a.4.4,0,0,1-.4-.4v-1a.4.4,0,1,1,.8,0v1A.4.4,0,0,1,278.92,170.61Zm0-3a.4.4,0,0,1-.4-.4v-1a.4.4,0,1,1,.8,0v1A.4.4,0,0,1,278.92,167.61Zm0-3a.4.4,0,0,1-.4-.4v-1a.4.4,0,1,1,.8,0v1A.4.4,0,0,1,278.92,164.61Zm0-3a.4.4,0,0,1-.4-.4v-1a.4.4,0,1,1,.8,0v1A.4.4,0,0,1,278.92,161.61Zm0-3a.4.4,0,0,1-.4-.4v-1a.4.4,0,1,1,.8,0v1A.4.4,0,0,1,278.92,158.61Zm0-3a.4.4,0,0,1-.4-.4V155a.4.4,0,1,1,.8,0v.25A.4.4,0,0,1,278.92,155.61Z" fill="#2672ab"/><path d="M290.59,183.1a.4.4,0,0,1-.4-.4v-1a.4.4,0,1,1,.8,0v1A.4.4,0,0,1,290.59,183.1Zm0-3a.4.4,0,0,1-.4-.4v-1a.4.4,0,1,1,.8,0v1A.4.4,0,0,1,290.59,180.1Zm0-3a.4.4,0,0,1-.4-.4v-1a.4.4,0,1,1,.8,0v1A.4.4,0,0,1,290.59,177.1Zm0-3a.4.4,0,0,1-.4-.4v-1a.4.4,0,1,1,.8,0v1A.4.4,0,0,1,290.59,174.1Zm0-3a.4.4,0,0,1-.4-.4v-1a.4.4,0,1,1,.8,0v1A.4.4,0,0,1,290.59,171.1Zm0-3a.4.4,0,0,1-.4-.4v-1a.4.4,0,1,1,.8,0v1A.4.4,0,0,1,290.59,168.1Zm0-3a.4.4,0,0,1-.4-.4v-1a.4.4,0,1,1,.8,0v1A.4.4,0,0,1,290.59,165.1Zm0-3a.4.4,0,0,1-.4-.4v-1a.4.4,0,1,1,.8,0v1A.4.4,0,0,1,290.59,162.1Z" fill="#2672ab"/><path d="M267.31,170a.4.4,0,0,1-.4-.4v-1a.4.4,0,1,1,.8,0v1A.4.4,0,0,1,267.31,170Zm0-3a.4.4,0,0,1-.4-.4v-1a.4.4,0,1,1,.8,0v1A.4.4,0,0,1,267.31,167Zm0-3a.4.4,0,0,1-.4-.4v-1a.4.4,0,1,1,.8,0v1A.4.4,0,0,1,267.31,164Zm0-3a.4.4,0,0,1-.4-.4v-1a.4.4,0,1,1,.8,0v1A.4.4,0,0,1,267.31,161Zm0-3a.4.4,0,0,1-.4-.4v-1a.4.4,0,1,1,.8,0v1A.4.4,0,0,1,267.31,158Zm0-3a.4.4,0,0,1-.4-.4v-1a.4.4,0,1,1,.8,0v1A.4.4,0,0,1,267.31,155Zm0-3a.4.4,0,0,1-.4-.4v-1a.4.4,0,1,1,.8,0v1A.4.4,0,0,1,267.31,152Zm0-3a.4.4,0,0,1-.4-.4v-1a.4.4,0,1,1,.8,0v1A.4.4,0,0,1,267.31,149Zm0-3a.4.4,0,0,1-.4-.4v-1a.4.4,0,1,1,.8,0v1A.4.4,0,0,1,267.31,146Zm0-3a.4.4,0,0,1-.4-.4v-1a.4.4,0,1,1,.8,0v1A.4.4,0,0,1,267.31,143Zm0-3a.4.4,0,0,1-.4-.4v-1a.4.4,0,1,1,.8,0v1A.4.4,0,0,1,267.31,140Zm0-3a.4.4,0,0,1-.4-.4v-1a.4.4,0,1,1,.8,0v1A.4.4,0,0,1,267.31,137Zm0-3a.4.4,0,0,1-.4-.4v-1a.4.4,0,1,1,.8,0v1A.4.4,0,0,1,267.31,134Z" fill="#2672ab"/><path d="M255.71,163.29a.4.4,0,0,1-.4-.4v-1a.4.4,0,0,1,.8,0v1A.4.4,0,0,1,255.71,163.29Zm0-3a.4.4,0,0,1-.4-.4v-1a.4.4,0,0,1,.8,0v1A.4.4,0,0,1,255.71,160.29Zm0-3a.4.4,0,0,1-.4-.4v-1a.4.4,0,0,1,.8,0v1A.4.4,0,0,1,255.71,157.29Zm0-3a.4.4,0,0,1-.4-.4v-1a.4.4,0,0,1,.8,0v1A.4.4,0,0,1,255.71,154.29Zm0-3a.4.4,0,0,1-.4-.4v-1a.4.4,0,0,1,.8,0v1A.4.4,0,0,1,255.71,151.29Zm0-3a.4.4,0,0,1-.4-.4v-1a.4.4,0,0,1,.8,0v1A.4.4,0,0,1,255.71,148.29Zm0-3a.4.4,0,0,1-.4-.4v-1a.4.4,0,0,1,.8,0v1A.4.4,0,0,1,255.71,145.29Zm0-3a.4.4,0,0,1-.4-.4v-1a.4.4,0,0,1,.8,0v1A.4.4,0,0,1,255.71,142.29Zm0-3a.4.4,0,0,1-.4-.4v-1a.4.4,0,0,1,.8,0v1A.4.4,0,0,1,255.71,139.29Zm0-3a.4.4,0,0,1-.4-.4v-1a.4.4,0,0,1,.8,0v1A.4.4,0,0,1,255.71,136.29Zm0-3a.4.4,0,0,1-.4-.4v-1a.4.4,0,0,1,.8,0v1A.4.4,0,0,1,255.71,133.29Zm0-3a.4.4,0,0,1-.4-.4v-1a.4.4,0,0,1,.8,0v1A.4.4,0,0,1,255.71,130.29Zm0-3a.4.4,0,0,1-.4-.4v-1a.4.4,0,0,1,.8,0v1A.4.4,0,0,1,255.71,127.29Zm0-3a.4.4,0,0,1-.4-.4v-1a.4.4,0,0,1,.8,0v1A.4.4,0,0,1,255.71,124.29Zm0-3a.4.4,0,0,1-.4-.4v-1a.4.4,0,0,1,.8,0v1A.4.4,0,0,1,255.71,121.29Zm0-3a.4.4,0,0,1-.4-.4v-1a.4.4,0,0,1,.8,0v1A.4.4,0,0,1,255.71,118.29Z" fill="#2672ab"/><path d="M244.11,156.27a.4.4,0,0,1-.4-.4v-1a.4.4,0,1,1,.8,0v1A.4.4,0,0,1,244.11,156.27Zm0-3a.4.4,0,0,1-.4-.4v-1a.4.4,0,1,1,.8,0v1A.4.4,0,0,1,244.11,153.27Zm0-3a.4.4,0,0,1-.4-.4v-1a.4.4,0,1,1,.8,0v1A.4.4,0,0,1,244.11,150.27Zm0-3a.4.4,0,0,1-.4-.4v-1a.4.4,0,1,1,.8,0v1A.4.4,0,0,1,244.11,147.27Zm0-3a.4.4,0,0,1-.4-.4v-1a.4.4,0,1,1,.8,0v1A.4.4,0,0,1,244.11,144.27Zm0-3a.4.4,0,0,1-.4-.4v-1a.4.4,0,1,1,.8,0v1A.4.4,0,0,1,244.11,141.27Zm0-3a.4.4,0,0,1-.4-.4v-1a.4.4,0,1,1,.8,0v1A.4.4,0,0,1,244.11,138.27Zm0-3a.4.4,0,0,1-.4-.4v-1a.4.4,0,1,1,.8,0v1A.4.4,0,0,1,244.11,135.27Zm0-3a.4.4,0,0,1-.4-.4v-1a.4.4,0,1,1,.8,0v1A.4.4,0,0,1,244.11,132.27Zm0-3a.4.4,0,0,1-.4-.4v-1a.4.4,0,1,1,.8,0v1A.4.4,0,0,1,244.11,129.27Zm0-3a.4.4,0,0,1-.4-.4v-1a.4.4,0,1,1,.8,0v1A.4.4,0,0,1,244.11,126.27Z" fill="#2672ab"/><path d="M232.5,149.68a.4.4,0,0,1-.4-.4v-1a.4.4,0,1,1,.8,0v1A.4.4,0,0,1,232.5,149.68Zm0-3a.4.4,0,0,1-.4-.4v-1a.4.4,0,1,1,.8,0v1A.4.4,0,0,1,232.5,146.68Zm0-3a.4.4,0,0,1-.4-.4v-1a.4.4,0,1,1,.8,0v1A.4.4,0,0,1,232.5,143.68Zm0-3a.4.4,0,0,1-.4-.4v-1a.4.4,0,1,1,.8,0v1A.4.4,0,0,1,232.5,140.68Zm0-3a.4.4,0,0,1-.4-.4v-1a.4.4,0,1,1,.8,0v1A.4.4,0,0,1,232.5,137.68Zm0-3a.4.4,0,0,1-.4-.4v-1a.4.4,0,1,1,.8,0v1A.4.4,0,0,1,232.5,134.68Zm0-3a.4.4,0,0,1-.4-.4v-1a.4.4,0,1,1,.8,0v1A.4.4,0,0,1,232.5,131.68Zm0-3a.4.4,0,0,1-.4-.4v-1a.4.4,0,1,1,.8,0v1A.4.4,0,0,1,232.5,128.68Zm0-3a.4.4,0,0,1-.4-.4v-1a.4.4,0,1,1,.8,0v1A.4.4,0,0,1,232.5,125.68Z" fill="#2672ab"/><path d="M253.58,109.66a5.52,5.52,0,0,0,2.5,4.32c1.39.79,2.51.16,2.51-1.43a5.49,5.49,0,0,0-2.51-4.31C254.7,107.44,253.58,108.08,253.58,109.66Z" fill="#d1ebff"/><path d="M257.21,114.82h0a2.83,2.83,0,0,1-1.38-.41,6,6,0,0,1-2.75-4.75c0-1.36.76-2.27,1.88-2.27a2.76,2.76,0,0,1,1.37.41,6,6,0,0,1,2.76,4.75,2.51,2.51,0,0,1-.5,1.62A1.73,1.73,0,0,1,257.21,114.82ZM255,108.39c-.79,0-.88.89-.88,1.27a5,5,0,0,0,2.25,3.88c.63.36,1.19.37,1.48,0a1.56,1.56,0,0,0,.28-1,5,5,0,0,0-2.26-3.88A1.8,1.8,0,0,0,255,108.39Z" fill="#2672ab"/><path d="M299.15,155.58a1,1,0,0,1-.79-.39l-4.29-5.65a8.44,8.44,0,0,0-6-3.3l-14.38-1.15a10.43,10.43,0,0,1-7.52-4.16l-6.09-8.16a8.48,8.48,0,0,0-10.23-2.64,10.37,10.37,0,0,1-9-.16l-.56-.28a8.41,8.41,0,0,0-6.84-.31L224.18,133a1,1,0,0,1-1.29-.56,1,1,0,0,1,.56-1.3l9.27-3.63a10.4,10.4,0,0,1,8.46.38l.57.28a8.38,8.38,0,0,0,7.25.13,10.48,10.48,0,0,1,12.66,3.26l6.08,8.17a8.4,8.4,0,0,0,6.08,3.35l14.38,1.16a10.43,10.43,0,0,1,7.46,4.08L300,154a1,1,0,0,1-.19,1.4A1,1,0,0,1,299.15,155.58Z" fill="#eb4680"/><path d="M299.32,176.58a1,1,0,0,1-.4-.08l-10-4.38a42,42,0,0,1-14.63-10.67L271,157.8a4.38,4.38,0,0,0-5.74-.73,6.38,6.38,0,0,1-9.86-4.21l-2.35-13.78a4.38,4.38,0,0,0-5.79-3.39c-14.87,5.34-22.55,8.09-22.82,8.17a1,1,0,1,1-.64-1.89c.21-.07,4.33-1.54,22.79-8.16a6.36,6.36,0,0,1,8.43,4.93l2.35,13.78a4.38,4.38,0,0,0,6.77,2.89,6.37,6.37,0,0,1,8.36,1.07l3.22,3.65a40,40,0,0,0,13.93,10.16l10,4.38a1,1,0,0,1,.52,1.31A1,1,0,0,1,299.32,176.58Z" fill="#ffd70f"/><polygon points="236.35 89.16 253.19 99.12 256.29 106.89 257.43 106.44 257.43 89.58 236.35 77.17 235.15 77.67 236.35 89.16" fill="#fc0"/><polygon points="256.04 90.23 235.74 78.27 235.48 77.46 256.56 89.88 256.56 106.73 256.04 105.29 256.04 90.23" fill="#fff"/><polygon points="235.15 89.58 251.99 99.54 256.24 106.87 256.24 90 235.15 77.59 235.15 89.58" fill="#ffde17"/><polygon points="237.34 88.55 237.34 81.2 254.11 90.97 254.11 98.33 237.34 88.55" fill="#fff"/></g></g></svg>