<svg id="fd163d2f-5a30-457d-8b23-e62b98a9328c" data-name="Layer 1" xmlns="http://www.w3.org/2000/svg" viewBox="0 0 101.52 63.73"><path d="M34.52,17.16l1.24,2-1.24-2Z" fill="none"/><path d="M33.8,16l.33.53h0Z" fill="none"/><path d="M61.24,17.42l.32.68Z" fill="none"/><path d="M56.75,9.77l-1-1.56,1,1.56Z" fill="none"/><path d="M57.75,11.4c-.2-.33-.4-.66-.61-1h0C57.35,10.74,57.55,11.07,57.75,11.4Z" fill="none"/><path d="M49.56,2.8l0,0A49.07,49.07,0,0,0,41.87.51a.36.36,0,0,1,0,.09A48.24,48.24,0,0,1,49.56,2.8Z" fill="none"/><path d="M28.76,17.94l.39.24h0Z" fill="none"/><path d="M30,18.73l.31.18-.3-.19Z" fill="none"/><path d="M62.88,19.33a1.38,1.38,0,0,0,.1-.4l-.9.15Z" fill="none"/><path d="M58.86,7.13l.72.41Z" fill="none"/><path d="M32.11,19.93l-.27-.15Z" fill="none"/><path d="M56,5.63c.55.27,1.1.56,1.66.86C57.12,6.19,56.57,5.9,56,5.63Z" fill="none"/><path d="M36.9,21.07c-.24-.41-.49-.82-.74-1.23C36.41,20.25,36.66,20.66,36.9,21.07Z" fill="none"/><path d="M59.25,13.86c0,.05,0,.09.07.13S59.27,13.91,59.25,13.86Z" fill="none"/><path d="M54.66,6.32c.23.4.48.81.72,1.21C55.14,7.13,54.89,6.72,54.66,6.32Z" fill="none"/><path d="M60.3,15.68c.12.21.22.41.33.62C60.52,16.09,60.42,15.89,60.3,15.68Z" fill="none"/><path d="M32.59,14c-.23-.37-.44-.73-.65-1.1C32.15,13.26,32.36,13.62,32.59,14Z" fill="none"/><path d="M30.32,10,30,9.29Z" fill="none"/><path d="M31.26,11.71l-.34-.62Z" fill="none"/><polygon points="62.39 19.96 62.39 19.95 62.39 19.95 62.39 19.96" fill="none"/><path d="M32.1,17.32c.7-.25,1.37-.52,2-.8L33.8,16c-.41-.67-.82-1.34-1.21-2-.23-.37-.44-.73-.65-1.1s-.47-.79-.68-1.18l-.34-.62c-.21-.38-.42-.76-.6-1.12L30,9.29c0-.12-.11-.23-.16-.34-.49-.17-1-.32-1.46-.45L18.12,10.25A105.91,105.91,0,0,0,28.4,17.71l.36.23.4.24C30.13,17.94,31.11,17.66,32.1,17.32Z" fill="#f7931e"/><path d="M31.84,19.78l-1.49-.87Z" fill="#f7931e"/><path d="M37.38,21.9l-.48-.83c-.24-.41-.49-.82-.74-1.23-.13-.22-.26-.44-.4-.66l-1.24-2c-.7.31-1.42.6-2.17.86s-1.54.5-2.3.7l.3.19,1.49.87.27.15c1.42.8,2.81,1.54,4.16,2.19.57.28,1.14.56,1.7.81Z" fill="#f7931e"/><path d="M28.76,17.94l-.36-.23Z" fill="#f7931e"/><path d="M43.66,22.23c-.51.79-1,1.59-1.43,2.39a49.06,49.06,0,0,0,7.1,2,33.63,33.63,0,0,0-2.67-4.92Z" fill="#ef1899"/><path d="M38.4,23.12h0l.73.31c.81.35,1.6.68,2.38,1l0,0c.36-.66.75-1.32,1.16-2Z" fill="#ef1899"/><path d="M62.39,20h0c-.62-.18-1.23-.38-1.85-.6L47.46,21.58a33.85,33.85,0,0,1,2.76,5.22.36.36,0,0,1,0,.11c6.09,1.07,10.36.24,12.09-1.46C63.51,24.3,63.31,22.34,62.39,20Z" fill="#ef1899"/><path d="M73.19,17A100.68,100.68,0,0,0,61.61,8.74a30.6,30.6,0,0,0-4.47,1.67c.21.33.41.66.61,1,.51.83,1,1.65,1.5,2.46,0,.05,0,.09.07.13.34.57.67,1.14,1,1.69.12.21.22.41.33.62.21.38.42.76.61,1.12l.32.68c.16.32.32.65.46,1l.06,0,.9-.15a1.08,1.08,0,0,0,0-.19Z" fill="#0089ce"/><path d="M54.22,5.57l.44.75c.23.4.48.81.72,1.21l.41.68,1,1.56a30.9,30.9,0,0,1,4-1.55l-1.16-.68-.72-.41-1.18-.64c-.56-.3-1.11-.59-1.66-.86l-.26-.14c-.73-.36-1.46-.71-2.18-1C53.79,4.82,54,5.19,54.22,5.57Z" fill="#0089ce"/><path d="M57.68,6.49l1.18.64Z" fill="#0089ce"/><path d="M73.19,17,63,18.74a1.08,1.08,0,0,1,0,.19l10.45-1.79a102.19,102.19,0,0,0-11.81-8.4h0A100.68,100.68,0,0,1,73.19,17Z" fill="#0089ce"/><path d="M55.76,5.49l.26.14Z" fill="#0089ce"/><path d="M60.76,8.21l-1.18-.67,1.16.68Z" fill="#0089ce"/><path d="M43.78,5.87A33.92,33.92,0,0,1,41,.43c-6-1-10.12-.17-11.82,1.51-1.27,1.25-.93,3.43.2,6.08l.59.2Z" fill="#27bf1b"/><path d="M53.15,4.27h0c-1-.44-1.95-.83-2.89-1.19-.38.63-.8,1.26-1.24,1.9Z" fill="#27bf1b"/><path d="M48,5.15c.56-.79,1.08-1.58,1.56-2.35A48.24,48.24,0,0,0,41.91.6a33.12,33.12,0,0,0,2.66,5.13Z" fill="#27bf1b"/><path d="M55.62,11.16a32.42,32.42,0,0,0-3.31,2,1.78,1.78,0,0,1,.11.61,2,2,0,0,1,0,.36A32.32,32.32,0,0,0,62,19.06c-.14-.31-.3-.64-.46-1l-.32-.68c-.19-.36-.4-.74-.61-1.12-.11-.21-.21-.41-.33-.62-.31-.55-.64-1.12-1-1.69,0,0,0-.08-.07-.13-.48-.81-1-1.63-1.5-2.46-.2-.33-.4-.66-.61-1C56.63,10.64,56.13,10.89,55.62,11.16Z" fill="#6531af"/><path d="M39.74,11.55a1.52,1.52,0,0,1,1.38.82,33.66,33.66,0,0,0,3.56-3.22A1.59,1.59,0,0,1,44.17,8a1.65,1.65,0,0,1,.34-1c-.25-.37-.5-.75-.73-1.12L30,8.22a33.82,33.82,0,0,1,8.34,4A1.72,1.72,0,0,1,39.74,11.55Z" fill="#6531af"/><path d="M46.22,17.63a33,33,0,0,1,3.09-3,1.55,1.55,0,0,1,.2-1.83c-.42-.38-.84-.76-1.25-1.18-.66-.66-1.26-1.34-1.83-2a1.61,1.61,0,0,1-.54.09,1.67,1.67,0,0,1-.55-.09,35.2,35.2,0,0,1-4,3.62v.05a1.66,1.66,0,0,1-.34,1,31.68,31.68,0,0,1,2.82,2.65c.31.33.6.66.89,1a1.78,1.78,0,0,1,1-.35A1.85,1.85,0,0,1,46.22,17.63Z" fill="#6531af"/><path d="M38.43,14.26a1.58,1.58,0,0,1-.41-1,1,1,0,0,1,0-.24,32.68,32.68,0,0,0-8.22-4c.05.11.11.22.16.34l.33.68c.18.36.39.74.6,1.12l.34.62c.21.39.45.79.68,1.18s.42.73.65,1.1c.39.66.8,1.33,1.21,2l.33.53A30.64,30.64,0,0,0,38.43,14.26Z" fill="#6531af"/><path d="M45.89,6.32a1.58,1.58,0,0,1,1,.33q.6-.75,1.14-1.5l-3.43.58.53.79A1.71,1.71,0,0,1,45.89,6.32Z" fill="#6531af"/><path d="M50.83,15.46a1.79,1.79,0,0,1-1-.32A32.09,32.09,0,0,0,46.87,18a1.7,1.7,0,0,1,.46,1.19,1.65,1.65,0,0,1-.59,1.3c.25.36.49.71.72,1.07l13.08-2.23a32.65,32.65,0,0,1-8.47-4.5A1.52,1.52,0,0,1,50.83,15.46Z" fill="#6531af"/><path d="M45.74,20.87a1.82,1.82,0,0,1-1-.28c-.39.54-.77,1.09-1.13,1.64l3-.52c-.19-.29-.4-.58-.61-.87A3,3,0,0,1,45.74,20.87Z" fill="#6531af"/><path d="M47.33,7.26a1.89,1.89,0,0,1,.15.72,1.69,1.69,0,0,1-.42,1.14c.54.65,1.11,1.3,1.73,1.93.44.43.88.85,1.32,1.25a1.72,1.72,0,0,1,.72-.15,1.52,1.52,0,0,1,1.07.42,30.3,30.3,0,0,1,3.37-2.07c.49-.26,1-.5,1.48-.73l-1-1.56-.41-.68c-.24-.4-.49-.81-.72-1.21l-.44-.75L53.6,4.48l-.45-.21L49,5C48.51,5.73,47.94,6.5,47.33,7.26Z" fill="#6531af"/><path d="M44.27,20.05a1.53,1.53,0,0,1-.25-.84,1.57,1.57,0,0,1,.19-.74c-.31-.35-.62-.71-1-1.06a32.48,32.48,0,0,0-2.86-2.68,1.59,1.59,0,0,1-.66.14,1.8,1.8,0,0,1-.66-.13,31.73,31.73,0,0,1-4.56,2.42l1.24,2c.14.22.27.44.4.66.25.41.5.82.74,1.23l.48.83c.19.34.39.68.57,1l.45.21,4.28-.73C43.16,21.61,43.69,20.82,44.27,20.05Z" fill="#6531af"/><path d="M31.94,12.89c-.23-.39-.47-.79-.68-1.18C31.47,12.1,31.71,12.5,31.94,12.89Z" fill="#6531af"/><path d="M30.92,11.09c-.21-.38-.42-.76-.6-1.12C30.5,10.33,30.71,10.71,30.92,11.09Z" fill="#6531af"/><path d="M37.38,21.9l-.48-.83Z" fill="#6531af"/><path d="M33.8,16c-.41-.67-.82-1.34-1.21-2C33,14.65,33.39,15.32,33.8,16Z" fill="#6531af"/><path d="M29.83,9c.05.11.11.22.16.34,0-.12-.11-.23-.16-.34Z" fill="#6531af"/><path d="M36.16,19.84c-.13-.22-.26-.44-.4-.66C35.9,19.4,36,19.62,36.16,19.84Z" fill="#6531af"/><rect x="40.54" y="20.59" height="4.33" fill="#6531af"/><rect x="43.64" y="21.97" width="3.04" transform="translate(-3.05 7.91) rotate(-9.69)" fill="#6531af"/><polygon points="47.46 21.58 47.46 21.58 60.54 19.34 60.54 19.34 47.46 21.58" fill="#6531af"/><path d="M62,19.06c-.14-.31-.3-.64-.46-1,.16.32.32.65.46,1Z" fill="#6531af"/><path d="M57.75,11.4c.51.83,1,1.65,1.5,2.46C58.77,13.05,58.26,12.23,57.75,11.4Z" fill="#6531af"/><path d="M54.22,5.57l.44.75Z" fill="#6531af"/><path d="M55.38,7.53l.41.68Z" fill="#6531af"/><path d="M60.63,16.3c.21.38.42.76.61,1.12C61.05,17.06,60.84,16.68,60.63,16.3Z" fill="#6531af"/><path d="M59.32,14c.34.57.67,1.14,1,1.69C60,15.13,59.66,14.56,59.32,14Z" fill="#6531af"/><rect x="44.55" y="5.44" width="3.48" fill="#6531af"/><rect x="29.9" y="7.04" width="13.97" fill="#6531af"/><rect x="51.09" y="2.53" height="4.18" fill="#6531af"/><path d="M45.1,6.52c.27.4.56.81.86,1.21q.47-.54.9-1.08a1.58,1.58,0,0,0-1-.33A1.71,1.71,0,0,0,45.1,6.52Z" fill="#fff"/><path d="M47.06,9.12A1.69,1.69,0,0,0,47.48,8a1.89,1.89,0,0,0-.15-.72c-.29.36-.6.73-.91,1.09C46.62,8.61,46.84,8.86,47.06,9.12Z" fill="#fff"/><path d="M45.89,9.63a1.61,1.61,0,0,0,.54-.09l-.52-.62c-.18.21-.37.41-.57.62A1.67,1.67,0,0,0,45.89,9.63Z" fill="#fff"/><path d="M44.51,7a1.65,1.65,0,0,0-.34,1,1.59,1.59,0,0,0,.51,1.17c.27-.27.52-.56.78-.84C45.13,7.87,44.81,7.43,44.51,7Z" fill="#fff"/><path d="M49.31,14.58c.38-.33.78-.65,1.18-1-.33-.28-.66-.56-1-.86a1.55,1.55,0,0,0-.2,1.83Z" fill="#fff"/><path d="M49.81,15.14a1.79,1.79,0,0,0,1,.32,1.52,1.52,0,0,0,1.24-.61q-.49-.36-1-.75C50.65,14.44,50.22,14.78,49.81,15.14Z" fill="#fff"/><path d="M51.9,12.57a1.52,1.52,0,0,0-1.07-.42,1.72,1.72,0,0,0-.72.15c.32.29.65.57,1,.84Z" fill="#fff"/><path d="M52.38,14.16a2,2,0,0,0,0-.36,1.78,1.78,0,0,0-.11-.61l-.61.44Z" fill="#fff"/><path d="M39.08,14.74a1.8,1.8,0,0,0,.66.13,1.59,1.59,0,0,0,.66-.14l-.59-.47Z" fill="#fff"/><path d="M38.05,13a1,1,0,0,0,0,.24,1.58,1.58,0,0,0,.41,1c.25-.16.51-.31.76-.48Q38.62,13.36,38.05,13Z" fill="#fff"/><path d="M39.74,11.55a1.72,1.72,0,0,0-1.4.71c.5.34,1,.69,1.49,1.07.44-.31.88-.63,1.29-1A1.52,1.52,0,0,0,39.74,11.55Z" fill="#fff"/><path d="M41.33,13.16c-.29.22-.58.44-.88.65l.54.44a1.66,1.66,0,0,0,.34-1Z" fill="#fff"/><path d="M44.21,18.47a1.57,1.57,0,0,0-.19.74,1.53,1.53,0,0,0,.25.84c.19-.27.39-.53.59-.79Z" fill="#fff"/><path d="M44.79,20.59a1.82,1.82,0,0,0,1,.28,3,3,0,0,0,.31,0c-.23-.33-.46-.66-.71-1C45.15,20.1,45,20.35,44.79,20.59Z" fill="#fff"/><path d="M45.74,17.55a1.78,1.78,0,0,0-1,.35c.22.25.43.5.64.76.28-.35.58-.69.88-1A1.85,1.85,0,0,0,45.74,17.55Z" fill="#fff"/><path d="M46.74,20.51a1.65,1.65,0,0,0,.59-1.3A1.7,1.7,0,0,0,46.87,18c-.36.41-.71.82-1,1.24C46.14,19.68,46.45,20.09,46.74,20.51Z" fill="#fff"/><path d="M62,19.09h0v0S62,19.09,62,19.09Z" fill="#fff"/><path d="M62,19.09l-1.47.26c.62.22,1.23.42,1.85.6-.11-.28-.23-.57-.36-.86Z" fill="#fff"/><path d="M62,19.07h0v0h0l-.06,0Z" fill="#fff"/><path d="M44.57,5.73A33.12,33.12,0,0,1,41.91.6L41,.43a33.92,33.92,0,0,0,2.75,5.44Z" fill="#fff"/><path d="M52.38,14.16a1.67,1.67,0,0,1-.31.69,32.65,32.65,0,0,0,8.47,4.5L62,19.09s0,0,0,0h0A32.32,32.32,0,0,1,52.38,14.16Z" fill="#fff"/><path d="M46.43,9.54c.57.69,1.17,1.37,1.83,2,.41.42.83.8,1.25,1.18a1.79,1.79,0,0,1,.6-.45c-.44-.4-.88-.82-1.32-1.25-.62-.63-1.19-1.28-1.73-1.93A1.52,1.52,0,0,1,46.43,9.54Z" fill="#fff"/><path d="M45.1,6.52l-.53-.79-.79.14c.23.37.48.75.73,1.12A1.68,1.68,0,0,1,45.1,6.52Z" fill="#fff"/><polygon points="62.01 19.09 60.54 19.34 60.54 19.34 62.01 19.09 62.01 19.09" fill="#fff"/><polygon points="62.02 19.07 62.02 19.07 62.02 19.06 62.02 19.06 62.02 19.07" fill="#fff"/><rect x="44.17" y="5.4" height="0.81" fill="#fff"/><path d="M44.51,7c.3.44.62.88,1,1.32.17-.19.34-.38.5-.58-.3-.4-.59-.81-.86-1.21A1.68,1.68,0,0,0,44.51,7Z" fill="#fff"/><path d="M45.91,8.92l.52.62a1.52,1.52,0,0,0,.63-.42c-.22-.26-.44-.51-.64-.77Z" fill="#fff"/><path d="M51.08,14.1q.49.39,1,.75a1.67,1.67,0,0,0,.31-.69l-.68-.53Z" fill="#fff"/><path d="M49.51,12.75c.32.3.65.58,1,.86l.6-.47c-.33-.27-.66-.55-1-.84A1.79,1.79,0,0,0,49.51,12.75Z" fill="#fff"/><path d="M50.27,3.07V3l-.7-.28,0,0Z" fill="#fff"/><path d="M34.13,16.52h0l.39.64h0Z" fill="#fff"/><path d="M29.16,18.18h0l.89.55h0Z" fill="#fff"/><path d="M32.1,17.32c-1,.34-2,.62-2.94.86l.89.54c.76-.2,1.53-.43,2.3-.7s1.47-.55,2.17-.86l-.39-.64C33.47,16.8,32.8,17.07,32.1,17.32Z" fill="#fff"/><path d="M49,5c.44-.64.86-1.27,1.24-1.9l-.71-.27c-.48.77-1,1.56-1.56,2.35Z" fill="#fff"/><path d="M38.43,14.26a30.64,30.64,0,0,1-4.3,2.26l.39.64a31.73,31.73,0,0,0,4.56-2.42A1.65,1.65,0,0,1,38.43,14.26Z" fill="#fff"/><path d="M41.12,12.37a1.72,1.72,0,0,1,.21.79,35.2,35.2,0,0,0,4-3.62,1.63,1.63,0,0,1-.66-.39A33.66,33.66,0,0,1,41.12,12.37Z" fill="#fff"/><path d="M46.86,6.65a1.67,1.67,0,0,1,.47.61C47.94,6.5,48.51,5.73,49,5l-1,.18Q47.46,5.9,46.86,6.65Z" fill="#fff"/><rect x="48.51" y="4.53" height="1.05" fill="#fff"/><path d="M44.68,9.15a1.63,1.63,0,0,0,.66.39c.2-.21.39-.41.57-.62-.16-.2-.3-.41-.45-.61C45.2,8.59,45,8.88,44.68,9.15Z" fill="#fff"/><path d="M46.86,6.65q-.44.54-.9,1.08l.46.62c.31-.36.62-.73.91-1.09A1.67,1.67,0,0,0,46.86,6.65Z" fill="#fff"/><path d="M41.12,12.37c-.41.33-.85.65-1.29,1,.21.15.41.32.62.48.3-.21.59-.43.88-.65A1.72,1.72,0,0,0,41.12,12.37Z" fill="#fff"/><path d="M39.19,13.78c-.25.17-.51.32-.76.48a1.65,1.65,0,0,0,.65.48l.73-.48Z" fill="#fff"/><path d="M45.91,8.92l.51-.57L46,7.73c-.16.2-.33.39-.5.58C45.61,8.51,45.75,8.72,45.91,8.92Z" fill="#fff"/><path d="M57.14,10.41h0l-.39-.64h0Z" fill="#fff"/><path d="M42.68,22.39c-.41.66-.8,1.32-1.16,2l.71.25c.44-.8.92-1.6,1.43-2.39Z" fill="#fff"/><path d="M41.52,24.37l0,0,.71.26,0-.05Z" fill="#fff"/><path d="M61.61,8.74l-.87-.52a30.9,30.9,0,0,0-4,1.55l.39.64A30.6,30.6,0,0,1,61.61,8.74Z" fill="#fff"/><path d="M61.61,8.74h0l-.86-.53h0Z" fill="#fff"/><path d="M49.31,14.58a33,33,0,0,0-3.09,3,1.53,1.53,0,0,1,.65.39,32.09,32.09,0,0,1,2.94-2.88A1.79,1.79,0,0,1,49.31,14.58Z" fill="#fff"/><path d="M44.27,20.05c-.58.77-1.11,1.56-1.59,2.34l1-.16c.36-.55.74-1.1,1.13-1.64A1.78,1.78,0,0,1,44.27,20.05Z" fill="#fff"/><path d="M52.31,13.19a32.42,32.42,0,0,1,3.31-2c.51-.27,1-.52,1.52-.75l-.39-.64c-.5.23-1,.47-1.48.73a30.3,30.3,0,0,0-3.37,2.07A1.64,1.64,0,0,1,52.31,13.19Z" fill="#fff"/><rect x="42.67" y="22.31" width="1" transform="matrix(0.99, -0.17, 0.17, 0.99, -3.14, 7.58)" fill="#fff"/><path d="M51.7,13.63l.61-.44a1.64,1.64,0,0,0-.41-.62l-.81.57Z" fill="#fff"/><path d="M50.49,13.61c-.4.32-.8.64-1.18,1a1.79,1.79,0,0,0,.5.56c.41-.36.84-.7,1.27-1Z" fill="#fff"/><path d="M45.34,18.66l.48.6c.34-.42.69-.83,1-1.24a1.53,1.53,0,0,0-.65-.39C45.92,18,45.62,18.31,45.34,18.66Z" fill="#fff"/><path d="M44.79,20.59c.18-.24.36-.49.55-.73-.15-.2-.32-.4-.48-.6-.2.26-.4.52-.59.79A1.78,1.78,0,0,0,44.79,20.59Z" fill="#fff"/><path d="M51.7,13.63l-.61-.49-.6.47.59.49Z" fill="#fff"/><path d="M29.54,8.3h0v0S29.53,8.3,29.54,8.3Z" fill="#fff"/><path d="M49.33,26.63c.35.1.64.23.93.28a35.12,35.12,0,0,0-2.8-5.33l-.8.13A33.63,33.63,0,0,1,49.33,26.63Z" fill="#fff"/><path d="M46.05,20.84c.21.29.42.58.61.87l.8-.13c-.23-.36-.47-.71-.72-1.07A1.48,1.48,0,0,1,46.05,20.84Z" fill="#fff"/><path d="M44.7,17.9c-.29-.34-.58-.67-.89-1A31.68,31.68,0,0,0,41,14.25a1.38,1.38,0,0,1-.59.48,32.48,32.48,0,0,1,2.86,2.68c.33.35.64.71,1,1.06A1.79,1.79,0,0,1,44.7,17.9Z" fill="#fff"/><path d="M28.37,8.5c.48.13,1,.28,1.46.45-.1-.21-.21-.43-.3-.63h0v0Z" fill="#fff"/><path d="M30,8.22,29.41,8c0,.1.07.19.11.28h0Z" fill="#fff"/><path d="M30,8.22l-.46.08s0,0,0,0c.09.2.2.42.3.63a32.68,32.68,0,0,1,8.22,4,1.53,1.53,0,0,1,.29-.71A33.82,33.82,0,0,0,30,8.22Z" fill="#fff"/><path d="M29.53,8.32h0c.09.2.2.42.3.63h0C29.73,8.74,29.62,8.52,29.53,8.32Z" fill="#fff"/><polygon points="46.66 21.71 46.66 21.71 47.46 21.58 47.46 21.58 46.66 21.71" fill="#fff"/><rect x="29.54" y="8.26" width="0.47" transform="translate(-0.96 5.13) rotate(-9.69)" fill="#fff"/><path d="M41,14.25l-.54-.44-.64.45.59.47A1.38,1.38,0,0,0,41,14.25Z" fill="#fff"/><path d="M39.83,13.33c-.49-.38-1-.73-1.49-1.07a1.53,1.53,0,0,0-.29.71q.57.39,1.14.81Z" fill="#fff"/><path d="M45.34,19.86c.25.32.48.65.71,1a1.48,1.48,0,0,0,.69-.33c-.29-.42-.6-.83-.92-1.25Z" fill="#fff"/><path d="M45.34,18.66c-.21-.26-.42-.51-.64-.76a1.79,1.79,0,0,0-.49.57l.65.79Z" fill="#fff"/><path d="M39.19,13.78l.62.48.64-.45c-.21-.16-.41-.33-.62-.48Z" fill="#fff"/><path d="M45.34,18.66l-.48.6c.16.2.33.4.48.6l.48-.6Z" fill="#fff"/><text transform="translate(0.22 61.53) scale(0.96 1)" font-size="11.45" fill="#241d30" font-family="Texta-Light, Texta" font-weight="300"><tspan letter-spacing="-0.01em">T</tspan><tspan x="5.66" y="0">he i</tspan><tspan x="21.62" y="0" letter-spacing="-0.01em">n</tspan><tspan x="27.36" y="0" letter-spacing="0em">t</tspan><tspan x="30.74" y="0">ernet </tspan><tspan x="56.23" y="0" letter-spacing="-0.01em">o</tspan><tspan x="61.91" y="0" letter-spacing="-0.02em">f</tspan><tspan x="64.93" y="0" xml:space="preserve"> samples</tspan></text><path d="M1.89,30.26l1.86,1.8L1.89,33.8,0,32.06ZM.69,36.1l2.39-.32V47.69H.69Z" fill="#57298c"/><path d="M6.45,47.18l-.38-2.36a16.67,16.67,0,0,0,6,1.27c2.68,0,4-.87,4-2.37s-1-2.2-4.26-3.06c-4-1.1-5.57-2.46-5.57-5s2.08-4.23,6.05-4.23a17.47,17.47,0,0,1,5.43.86l.38,2.37a16.46,16.46,0,0,0-5.76-1.22c-2.18,0-3.54.74-3.54,2.08s.81,2.08,4,3c4.13,1.15,5.76,2.44,5.76,5.14s-2.2,4.52-6.29,4.52A19.65,19.65,0,0,1,6.45,47.18Z" fill="#57298c"/><path d="M25.43,40.23A5.8,5.8,0,0,1,29,41.45v-1c0-2-1.2-3-3.13-3a11.73,11.73,0,0,0-4.07.89l.31-2.16a14.57,14.57,0,0,1,4.16-.59c3.28,0,5.14,1.65,5.14,4.87v7.2H29V46.35A4.41,4.41,0,0,1,25.29,48c-2.63,0-4.28-1.69-4.28-4S22.75,40.23,25.43,40.23ZM26,46.28a2.94,2.94,0,0,0,3-3v-.15A4.84,4.84,0,0,0,25.93,42c-1.55,0-2.51.81-2.51,2.06A2.26,2.26,0,0,0,26,46.28Z" fill="#57298c"/><path d="M37.36,37.82a4.7,4.7,0,0,1,4.08-2.18,3.77,3.77,0,0,1,3.71,2.25,5.06,5.06,0,0,1,4.4-2.25c2.58,0,4.15,1.72,4.15,4.37v7.68H51.31V40.44c0-1.79-.93-2.86-2.67-2.86a3.24,3.24,0,0,0-3.06,3.2v6.91H43.16V40.32a2.47,2.47,0,0,0-2.6-2.74c-1.7,0-3.11,1.69-3.11,3.68v6.43H35.06V36.1l2.3-.32Z" fill="#57298c"/><path d="M59.56,37.82a4.78,4.78,0,0,1,4.26-2.18c2.46,0,4.82,2,4.82,6S66.42,48,63.34,48a5.47,5.47,0,0,1-3.68-1.38v4.43H57.27v-15l2.29-.32Zm3.3,8.29c1.86,0,3.32-1.72,3.32-4.33,0-2.86-1.41-4.2-3.3-4.2s-3.22,1.62-3.22,3.75v3.35A4.73,4.73,0,0,0,62.86,46.11Z" fill="#57298c"/><path d="M71.82,31.41,74.21,31V47.69H71.82Z" fill="#57298c"/><path d="M89,42.5H79.83c.24,2.39,1.77,3.68,4.4,3.68a9,9,0,0,0,4.32-1.1l-.33,2a9.7,9.7,0,0,1-4.42,1c-3.64,0-6.43-2.27-6.43-6.22a5.87,5.87,0,0,1,6-6.23,5.43,5.43,0,0,1,5.71,5.71A10.67,10.67,0,0,1,89,42.5Zm-9.13-1.65h6.88c-.17-2.22-1.48-3.39-3.39-3.39S80.19,38.6,79.88,40.85Z" fill="#57298c"/><path d="M91.85,47.4l-.33-2.15a12,12,0,0,0,4.61.93c1.72,0,2.87-.5,2.87-1.5s-.91-1.49-3-2c-3.13-.77-4.42-1.77-4.42-3.73s1.81-3.32,5-3.32a14.93,14.93,0,0,1,4,.62l.34,2.13a12.59,12.59,0,0,0-4.37-.91C95,37.46,94,38,94,38.82s.72,1.29,3,1.86c3.18.77,4.43,2,4.43,3.9,0,2.15-1.89,3.49-5,3.49A17.09,17.09,0,0,1,91.85,47.4Z" fill="#57298c"/></svg>